<svg width="235" height="114" viewBox="0 0 235 114" fill="none" xmlns="http://www.w3.org/2000/svg">
<path d="M14.1286 19.6815C13.896 19.8289 13.6759 20.0039 13.4733 20.2066L2.42244 31.2575C-0.785266 34.4652 -0.807326 39.6679 2.35625 42.903L2.42662 42.9797L2.7698 43.3526C3.07068 43.6796 3.51321 44.1592 4.08174 44.7729C5.21869 46.0007 6.85988 47.765 8.88017 49.9163C12.9197 54.2178 18.48 60.071 24.5589 66.2739C36.5906 78.5506 51.038 92.5992 59.647 98.3859C69.3437 104.935 78.1551 108.623 84.5885 110.677C87.8054 111.705 90.4295 112.325 92.2755 112.69C93.1983 112.873 93.9275 112.992 94.4394 113.068C94.6953 113.105 94.897 113.131 95.0417 113.149L95.1734 113.165C97.7375 113.568 100.004 113.643 102.023 113.222C104.184 112.771 105.875 111.791 107.251 110.414L109.909 107.756C110.107 107.559 110.279 107.343 110.425 107.114C111.431 106.201 112.272 105.115 112.905 103.903C113.773 102.243 114.225 100.397 114.223 98.5238C113.778 93.6136 109.145 90.7768 105.044 88.2704C102.98 87.247 101.137 85.8278 99.6211 84.0931L96.6017 77.0449H96.6287C98.8312 77.0449 100.616 75.26 100.616 73.0574C100.616 70.8548 98.8312 69.07 96.6287 69.07H93.185L90.7379 63.3573C92.2095 62.7706 93.2488 61.3333 93.2488 59.6521C93.2488 57.4495 91.464 55.6647 89.2614 55.6647H87.4424L85.4232 50.9515C87.5389 50.8535 89.2234 49.1082 89.2234 46.9683C89.2234 44.7657 87.4386 42.9809 85.236 42.9809H82.0089L80.4473 39.3352C80.2119 38.7656 80.0676 38.3554 79.946 38.0061C79.4398 36.3469 78.495 34.8552 77.2118 33.6883L75.2371 31.7097C74.3188 30.8255 73.2156 30.177 72.0206 29.8022V28.0945C69.6463 20.9366 60.9898 18.4408 55.1837 22.7978L47.101 14.5562C47.8275 13.823 48.4021 12.9534 48.7913 11.9974C49.1806 11.0414 49.3773 10.018 49.3701 8.98574C49.3625 7.95353 49.1513 6.93294 48.748 5.98268C48.3451 5.03238 47.758 4.17114 47.0213 3.44839C44.8054 1.24004 41.8046 0 38.6762 0C35.5478 0 32.5468 1.24004 30.3309 3.44839L14.1286 19.6815ZM50.0608 54.5448L50.0703 51.7152C50.0703 45.2594 47.564 39.1074 43.0829 34.5123L26.7167 17.8193L35.697 8.82572C36.1003 8.42078 36.5853 8.10654 37.1196 7.90401C37.6543 7.70145 38.2258 7.61529 38.7962 7.65125C39.3666 7.68717 39.9229 7.84443 40.4276 8.11242C40.9323 8.38045 41.3743 8.75311 41.7237 9.20547C40.2681 10.6685 39.4513 12.6483 39.4513 14.7119C39.4513 16.7756 40.2681 18.7553 41.7237 20.2184L58.5468 37.0871C60.0662 38.5518 62.0945 39.3701 64.2052 39.3701C66.3155 39.3701 68.3438 38.5518 69.8635 37.0871L71.8383 39.0618C72.3012 39.4233 72.6289 39.9303 72.7687 40.5011L72.7812 40.5371C72.9456 41.0088 73.1454 41.5799 73.4636 42.3201L73.7465 42.9809H70.1598C67.9572 42.9809 66.1723 44.7657 66.1723 46.9683C66.1723 48.0696 66.628 49.0569 67.3496 49.7785C68.0711 50.5 69.0964 50.9557 70.1598 50.9557H77.1624L79.1793 55.6647H76.1979C73.9953 55.6647 72.2104 57.4495 72.2104 59.6521C72.2104 60.7534 72.6661 61.7407 73.3877 62.4623C74.1092 63.1838 75.1345 63.6395 76.1979 63.6395H82.5952L84.9212 69.07H81.2102C79.0077 69.07 77.2228 70.8548 77.2228 73.0574C77.2228 74.1587 77.6785 75.1461 78.4 75.8676C79.1216 76.5891 80.1089 77.0069 81.2102 77.0449H88.3371L92.6412 87.0932C94.6277 90.4323 97.575 93.0952 101.098 94.7338L101.109 94.7403C103.021 95.9076 106.571 98.0738 106.666 99.1542C106.666 99.3657 106.458 100.016 105.507 101.08C104.438 100.949 102.979 100.743 101.232 100.428C97.3365 99.7257 92.0659 98.4892 86.5325 96.3615C75.3609 92.066 63.8106 84.4284 59.4989 70.9156L59.4966 70.9088C57.9594 66.1227 54.4918 60.5521 50.4721 55.0996C50.3358 54.9146 50.1987 54.7297 50.0608 54.5448ZM7.78424 37.5906C7.69199 37.4759 7.64164 37.3331 7.64164 37.1858C7.64164 37.0362 7.69363 36.8911 7.78868 36.7757L16.2687 28.2829C17.0274 29.0269 17.9225 29.9118 18.926 30.9159C22.2025 34.1947 26.6209 38.7333 31.1989 43.7806C35.7844 48.8359 40.4891 54.3572 44.3585 59.6061C48.2874 64.9356 51.1234 69.6788 52.2642 73.2279C52.4427 73.7873 52.631 74.3383 52.8293 74.8802L7.79362 37.6001C7.79381 37.6001 7.79339 37.5997 7.79362 37.6001C7.79065 37.5971 7.78712 37.5937 7.78424 37.5906Z" fill="#111111"/>
<path d="M138.542 2H158.004C166.3 2 173.35 7.26921 175.995 14.6479C176.374 14.7615 176.757 14.881 177.144 15.0066C177.499 14.8844 177.86 14.7674 178.225 14.6555C180.868 7.27286 187.92 2 196.219 2H215.681C215.681 7.785 213.118 12.9642 209.065 16.4662C223.918 23.1186 234.223 37.9421 234.223 54.4583C234.223 73.583 223.308 83.3708 213.452 92.2082L212.592 92.9796C208.036 97.0733 202.806 101.675 197.001 105.233C191.169 108.808 184.527 111.478 177.111 111.478C169.695 111.478 163.053 108.808 157.222 105.233C151.417 101.675 146.187 97.0733 141.63 92.9796L140.771 92.2082C130.915 83.3708 120 73.583 120 54.4583C120 37.9421 130.305 23.1186 145.158 16.4662C141.104 12.9642 138.542 7.78504 138.542 2ZM127.615 54.4583C127.615 70.1575 136.206 77.8728 146.302 86.9406L146.719 87.3149C151.299 91.4292 156.06 95.5895 161.201 98.7409C166.315 101.876 171.573 103.863 177.111 103.863C182.65 103.863 187.907 101.876 193.021 98.7409C198.162 95.5895 202.924 91.4292 207.503 87.3149L207.92 86.9406C218.017 77.8728 226.608 70.1575 226.608 54.4583C226.608 36.3141 211.109 20.3752 191.699 20.3752C190.504 20.3752 189.289 20.4275 188.084 20.5298C198.739 27.1894 206.356 37.9916 207.557 52.3208C207.733 54.4164 206.177 56.2573 204.081 56.4329C201.986 56.6088 200.145 55.0523 199.969 52.9571C198.3 33.0389 181.152 20.7454 160.816 20.4165C142.213 21.3177 127.615 36.8494 127.615 54.4583Z" fill="#111111"/>
</svg>
