<svg width="32" height="32" viewBox="0 0 32 32" fill="none" xmlns="http://www.w3.org/2000/svg">
<path d="M16.4715 11.5287C16.3465 11.4037 16.177 11.3335 16.0002 11.3335C15.8234 11.3335 15.6539 11.4037 15.5288 11.5287L8.86218 18.1954C8.7372 18.3204 8.66699 18.4899 8.66699 18.6667C8.66699 18.8435 8.7372 19.013 8.86218 19.138L10.1955 20.4714C10.3205 20.5963 10.4901 20.6665 10.6668 20.6665C10.8436 20.6665 11.0132 20.5963 11.1382 20.4714L16.0002 15.6094L20.8622 20.4714C20.9872 20.5963 21.1567 20.6665 21.3335 20.6665C21.5103 20.6665 21.6798 20.5963 21.8048 20.4714L23.1382 19.138C23.2632 19.013 23.3334 18.8435 23.3334 18.6667C23.3334 18.4899 23.2632 18.3204 23.1382 18.1954L16.4715 11.5287Z" fill="white"/>
</svg>
