<svg width="32" height="32" viewBox="0 0 32 32" fill="none" xmlns="http://www.w3.org/2000/svg">
<path d="M10.6667 2.6665V14.6665H9.73333C9.09719 14.6677 8.48745 14.921 8.03763 15.3708C7.58781 15.8206 7.33456 16.4304 7.33333 17.0665V18.9998C7.33022 20.233 7.81533 21.4172 8.68266 22.2938L11.4827 25.7545C12.0039 26.3973 12.6295 26.9479 13.3333 27.3832V30.6665C13.3333 30.8433 13.4036 31.0129 13.5286 31.1379C13.6536 31.2629 13.8232 31.3332 14 31.3332H23.3333C23.5101 31.3332 23.6797 31.2629 23.8047 31.1379C23.9298 31.0129 24 30.8433 24 30.6665V26.3292C24.8574 25.3947 25.3331 24.1727 25.3333 22.9045V13.9998C25.3344 13.6117 25.222 13.2317 25.0101 12.9065C24.7982 12.5814 24.4959 12.3251 24.1404 12.1694C23.7849 12.0136 23.3916 11.9651 23.0089 12.0297C22.6262 12.0943 22.2706 12.2693 21.986 12.5332C21.9507 12.0173 21.7164 11.5352 21.3326 11.1886C20.9488 10.8421 20.4455 10.658 19.9286 10.6753C19.4118 10.6926 18.9218 10.9099 18.5621 11.2813C18.2023 11.6528 18.0008 12.1494 18 12.6665C18.0017 12.2797 17.8907 11.9007 17.6806 11.576C17.4705 11.2512 17.1703 10.9947 16.8168 10.8377C16.4632 10.6807 16.0716 10.6301 15.6898 10.6921C15.308 10.754 14.9524 10.9258 14.6667 11.1865V2.6665C14.6667 2.13607 14.4559 1.62736 14.0809 1.25229C13.7058 0.877218 13.1971 0.666504 12.6667 0.666504C12.1362 0.666504 11.6275 0.877218 11.2524 1.25229C10.8774 1.62736 10.6667 2.13607 10.6667 2.6665V2.6665Z" fill="#FFD764"/>
<path d="M9.33331 14.7072V19.3332C9.33331 19.51 9.40355 19.6796 9.52858 19.8046C9.6536 19.9296 9.82317 19.9998 9.99998 19.9998C10.1768 19.9998 10.3464 19.9296 10.4714 19.8046C10.5964 19.6796 10.6666 19.51 10.6666 19.3332V14.6665H9.73331C9.59906 14.6686 9.46524 14.6822 9.33331 14.7072V14.7072Z" fill="#E2AC4B"/>
</svg>
