<svg width="48" height="48" viewBox="0 0 48 48" fill="none" xmlns="http://www.w3.org/2000/svg">
<path d="M16 4V22H14.6C13.6458 22.0019 12.7312 22.3817 12.0565 23.0565C11.3818 23.7312 11.0019 24.6458 11 25.6V28.5C10.9954 30.3497 11.723 32.1261 13.024 33.441L17.224 38.632C18.0059 39.5962 18.9443 40.422 20 41.075V46C20 46.2652 20.1054 46.5196 20.2929 46.7071C20.4805 46.8946 20.7348 47 21 47H35C35.2652 47 35.5196 46.8946 35.7071 46.7071C35.8947 46.5196 36 46.2652 36 46V39.494C37.2861 38.0923 37.9997 36.2593 38 34.357V21C38.0016 20.4178 37.8331 19.8478 37.5152 19.36C37.1973 18.8723 36.7439 18.488 36.2106 18.2543C35.6773 18.0207 35.0874 17.9478 34.5134 18.0448C33.9393 18.1417 33.406 18.4042 32.979 18.8C32.926 18.0261 32.5746 17.3031 31.9989 16.7832C31.4232 16.2633 30.6682 15.9873 29.893 16.0132C29.1177 16.0391 28.3828 16.365 27.8431 16.9222C27.3035 17.4794 27.0012 18.2243 27 19C27.0026 18.4198 26.8361 17.8514 26.5209 17.3642C26.2057 16.877 25.7555 16.4922 25.2252 16.2568C24.6949 16.0213 24.1075 15.9454 23.5347 16.0383C22.962 16.1312 22.4287 16.389 22 16.78V4C22 3.20435 21.684 2.44129 21.1213 1.87868C20.5587 1.31607 19.7957 1 19 1C18.2044 1 17.4413 1.31607 16.8787 1.87868C16.3161 2.44129 16 3.20435 16 4V4Z" fill="#FFD764"/>
<path d="M14 22.061V29C14 29.2652 14.1054 29.5196 14.2929 29.7071C14.4804 29.8946 14.7348 30 15 30C15.2652 30 15.5196 29.8946 15.7071 29.7071C15.8946 29.5196 16 29.2652 16 29V22H14.6C14.3986 22.0031 14.1979 22.0235 14 22.061V22.061Z" fill="#E2AC4B"/>
</svg>
