<svg width="546" height="266" viewBox="0 0 546 266" fill="none" xmlns="http://www.w3.org/2000/svg">
<path d="M286.467 37.027C286.467 37.027 322.568 0 360.521 0C405.886 0 419.305 36.5605 419.305 36.5605C419.305 36.5605 423.933 6.93887 456.332 6.93887C488.731 6.93887 507.711 30.0808 507.711 30.0808C507.711 30.0808 481.333 45.8172 473.461 49.0534C452.718 57.5918 389.224 75.4315 359.603 68.0261C329.981 60.6207 286.467 37.027 286.467 37.027Z" fill="#5C913B"/>
<path d="M411.9 43.5067C411.9 43.5067 419.616 36.8715 456.332 36.8715C504.779 36.8715 545.197 72.5063 545.197 132.601C545.197 217.993 434.427 265.017 434.427 265.017C434.427 265.017 286.008 257.027 286.008 132.201C286.008 58.4508 335.995 36.1013 367.468 36.1013C404.184 36.1013 411.9 43.5067 411.9 43.5067Z" fill="#FF886C"/>
<path d="M286.467 37.027C286.467 37.027 322.568 0 360.521 0C405.886 0 419.305 36.5605 419.305 36.5605C419.305 36.5605 389.224 75.4389 359.603 68.0335C329.981 60.6281 286.467 37.027 286.467 37.027V37.027Z" fill="#77B255"/>
<path d="M448.92 221.236C447.513 221.236 446.083 220.829 444.817 219.992C441.411 217.719 440.492 213.128 442.766 209.721C442.877 209.558 456.333 188.194 456.333 139.777C456.333 92.0492 422.431 64.3752 422.083 64.1012C418.891 61.5463 418.372 56.8883 420.927 53.6966C423.49 50.5049 428.148 49.9865 431.339 52.5414C432.961 53.8373 471.143 85.0067 471.143 139.777C471.143 193.244 455.748 216.956 455.088 217.941C453.667 220.081 451.312 221.236 448.92 221.236V221.236Z" fill="#DD2E44"/>
<path d="M175.548 76.5957L170.542 61.5331C169.549 59.2966 166.913 58.3487 164.758 59.4966C157.96 63.103 142.956 69.2569 137.476 71.1601C147.985 74.8998 163.388 82.2904 170.882 81.498C173.726 81.2018 176.71 79.2172 175.548 76.5957V76.5957ZM251.157 258.576C248.202 260.242 202.955 271.106 113.261 192.624C86.1051 168.86 5.51209 96.6865 6.55625 94.2279C6.55625 94.2279 4.11987 96.8939 2.09819 99.6783C0.63933 101.685 -0.26413 103.818 0.0691136 105.958C2.36479 120.525 23.1147 134.239 51.6255 156.174L55.6911 159.299L58.3793 161.365C62.7337 164.713 75.5302 174.806 90.4373 186.566C110.824 202.643 151.784 234.627 152.976 235.516C168.675 247.172 187.3 256.377 209.753 262.708C238.175 270.714 251.157 258.576 251.157 258.576Z" fill="#8899A6"/>
<path d="M251.157 258.576C251.157 258.576 254.689 256.954 258.34 251.778C261.991 246.601 264.19 237.53 258.673 227.725C253.156 217.928 233.08 189.802 226.497 178.324C223.29 172.733 224.297 167.608 218.166 157.329C218.166 157.329 194.735 116.429 189.551 107.543C178.465 88.5331 183.331 78.6469 175.947 72.9743C171.023 69.1902 121.843 74.2036 106.877 62.6882C96.5318 54.7348 96.3763 29.8971 92.0441 21.7659C88.5932 15.2862 77.0852 18.2484 69.1837 22.5805C61.2821 26.9127 39.762 50.6396 34.5634 57.4007C29.3648 64.1619 22.7073 71.5377 22.1297 79.0838L21.5447 86.6225C21.5447 86.6225 139.002 198.814 172.43 221.445C229.429 260.035 251.157 258.576 251.157 258.576V258.576Z" fill="#BE1931"/>
<path d="M179.836 78.8023C179.073 76.477 177.992 74.5442 175.948 72.9668C171.023 69.1827 121.844 74.2036 106.878 62.6807C96.5323 54.7273 96.3767 29.8822 92.0446 21.7585C90.6968 19.2332 88.1049 18.1668 84.9946 18.041C90.1044 28.4085 89.5934 59.3187 102.116 68.9457C117.208 80.5648 161.478 77.336 179.836 78.8023Z" fill="#A0041E"/>
<path d="M94.8582 133.669C98.5979 122.768 102.589 97.2714 95.4062 82.1125C88.6747 67.9164 62.5188 38.0133 57.5498 32.3482C48.3671 40.5312 36.0963 54.8458 32.3936 59.6593C27.506 66.0132 21.6187 73.152 21.3299 80.4019C21.2263 83.0086 21.9742 84.1786 21.9742 84.1786C21.9742 84.1786 94.7101 134.098 94.8582 133.669V133.669Z" fill="#DD2E44"/>
<path d="M167.742 106.884C165.261 106.884 162.929 105.388 161.966 102.937C160.714 99.7448 162.284 96.1458 165.476 94.8868L178.976 89.592C182.161 88.3553 185.782 89.9104 187.026 93.1095C188.277 96.3013 186.707 99.9003 183.516 101.159L170.016 106.454C169.268 106.743 168.505 106.884 167.742 106.884ZM177.717 129.566C175.562 129.566 173.474 128.448 172.326 126.449C170.616 123.479 171.637 119.68 174.614 117.969L187.892 110.335C190.869 108.624 194.668 109.653 196.372 112.623C198.082 115.592 197.06 119.391 194.083 121.102L180.805 128.737C179.828 129.3 178.769 129.566 177.717 129.566V129.566ZM191.203 149.946C189.307 149.946 187.433 149.08 186.219 147.443C184.167 144.696 184.738 140.808 187.485 138.756L198.697 130.396C201.444 128.344 205.339 128.907 207.383 131.662C209.435 134.417 208.864 138.305 206.117 140.356L194.905 148.709C193.794 149.546 192.491 149.946 191.203 149.946V149.946ZM205.606 168.985C203.814 168.985 202.037 168.215 200.807 166.712C198.63 164.061 199.023 160.143 201.666 157.966L210.22 150.946C212.863 148.776 216.788 149.154 218.965 151.805C221.143 154.456 220.75 158.373 218.106 160.551L209.553 167.571C208.391 168.519 206.991 168.985 205.606 168.985ZM20.3228 80.9943C20.3228 80.9943 25.3215 85.5264 30.8755 86.3706C36.4296 87.2148 46.2714 93.4058 53.0399 98.6118C59.8084 103.818 85.6163 122.99 101.427 138.927C117.237 154.863 142.12 187.654 151.791 197.155C161.462 206.649 177.066 220.801 190.403 229.347C203.74 237.893 215.988 245.128 223.846 249.238C233.976 254.54 243.337 257.71 251.157 258.576C248.432 260.176 234.028 265.581 209.02 257.058C185.115 248.904 169.534 240.07 156.656 230.502C143.778 220.934 73.6565 165.275 62.1708 156.441C50.685 147.606 16.3461 121.428 10.9253 113.585C3.22372 102.448 3.59399 97.575 5.08989 95.6348C8.73335 90.8879 16.4276 77.9951 20.3228 80.9943V80.9943Z" fill="#CCD6DD"/>
<path d="M258.673 227.725C253.156 217.928 233.08 189.802 226.497 178.324C225.208 176.072 224.593 173.888 223.927 171.429C223.253 171.681 222.527 171.829 221.935 172.236C213.389 178.101 213.433 195.823 226.163 214.351C236.368 229.206 252.749 240.655 261.946 240.833C262.139 236.849 261.295 232.376 258.673 227.725Z" fill="#DD2E44"/>
</svg>
