<svg width="64" height="64" viewBox="0 0 64 64" fill="none" xmlns="http://www.w3.org/2000/svg">
<rect width="64" height="64" rx="6" fill="#1E8CED"/>
<path fill-rule="evenodd" clip-rule="evenodd" d="M47.5069 38.75C47.5069 32.375 43.239 29 36.9627 27.875C29.0546 26.625 28.176 26.125 28.176 24.625C28.176 23 29.8078 21.75 34.7033 21.75C39.8498 21.75 43.7411 23 46.3771 24.875H46.7537V21C46.7537 15.375 41.6072 12 33.3225 12C24.6613 12 16 16.625 16 25.625C16 31.625 19.5147 34.75 26.4186 35.75C34.3267 36.875 35.2054 37.5 35.2054 39.25C35.2054 41.125 33.6991 42.25 28.9291 42.25C23.5315 42.25 19.7658 40.75 17.2553 39H16.7532V42.75C16.7532 48.25 20.5189 52 30.812 52C41.1051 51.875 47.5069 46.75 47.5069 38.75Z" fill="white"/>
</svg>
