<svg width="1803" height="683" viewBox="0 0 1803 683" fill="none" xmlns="http://www.w3.org/2000/svg">
<rect x="264" y="502" width="168" height="77" rx="4" fill="#F3F1F9"/>
<path d="M288.933 554L298.091 528.92H304.361L313.519 554H308.085L305.995 547.882H296.343L294.291 554H288.933ZM300.067 536.862L297.635 544.006H304.703L302.347 536.938L301.207 533.138H301.131L300.067 536.862ZM323.443 554.38C321.873 554.38 320.467 553.987 319.225 553.202C318.009 552.417 317.047 551.302 316.337 549.858C315.653 548.389 315.311 546.615 315.311 544.538C315.311 542.435 315.679 540.649 316.413 539.18C317.148 537.685 318.136 536.558 319.377 535.798C320.644 535.013 322.063 534.62 323.633 534.62C325.001 534.62 326.179 534.949 327.167 535.608C328.155 536.267 328.903 537.141 329.409 538.23V526.678H334.615V554H329.941L329.713 550.314C329.181 551.581 328.358 552.581 327.243 553.316C326.129 554.025 324.862 554.38 323.443 554.38ZM324.963 550.39C326.306 550.39 327.383 549.871 328.193 548.832C329.004 547.768 329.409 546.273 329.409 544.348C329.409 542.524 329.004 541.118 328.193 540.13C327.408 539.117 326.357 538.61 325.039 538.61C323.621 538.61 322.506 539.117 321.695 540.13C320.91 541.118 320.517 542.575 320.517 544.5C320.517 546.425 320.91 547.895 321.695 548.908C322.481 549.896 323.57 550.39 324.963 550.39ZM340.086 554V535H344.76L344.95 538.42C345.583 537.153 346.444 536.203 347.534 535.57C348.648 534.937 349.877 534.62 351.22 534.62C352.588 534.62 353.816 534.937 354.906 535.57C356.02 536.178 356.856 537.115 357.414 538.382C357.996 537.115 358.896 536.178 360.112 535.57C361.328 534.937 362.582 534.62 363.874 534.62C365.115 534.62 366.242 534.873 367.256 535.38C368.294 535.887 369.118 536.647 369.726 537.66C370.334 538.673 370.638 539.965 370.638 541.536V554H365.432V542.562C365.432 541.169 365.115 540.181 364.482 539.598C363.874 539.015 363.101 538.724 362.164 538.724C360.998 538.724 360.01 539.155 359.2 540.016C358.389 540.852 357.984 542.106 357.984 543.778V554H352.778V542.562C352.778 541.169 352.461 540.181 351.828 539.598C351.22 539.015 350.434 538.724 349.472 538.724C348.813 538.724 348.154 538.901 347.496 539.256C346.862 539.611 346.33 540.168 345.9 540.928C345.494 541.688 345.292 542.689 345.292 543.93V554H340.086ZM378.629 532.264C376.476 532.264 375.399 531.339 375.399 529.49C375.399 527.615 376.476 526.678 378.629 526.678C380.783 526.678 381.859 527.615 381.859 529.49C381.859 531.339 380.783 532.264 378.629 532.264ZM381.213 535V554H376.007V535H381.213ZM386.732 554V535H391.406L391.596 538.572C392.179 537.255 393.027 536.267 394.142 535.608C395.282 534.949 396.587 534.62 398.056 534.62C400.032 534.62 401.666 535.203 402.958 536.368C404.25 537.508 404.896 539.231 404.896 541.536V554H399.69V543.018C399.69 541.397 399.361 540.282 398.702 539.674C398.069 539.041 397.258 538.724 396.27 538.724C395.561 538.724 394.864 538.901 394.18 539.256C393.521 539.585 392.977 540.13 392.546 540.89C392.141 541.65 391.938 542.663 391.938 543.93V554H386.732Z" fill="#6648AD"/>
<path d="M217.497 454.578C216.711 456.731 215.419 458.403 213.621 459.594C211.822 460.785 209.745 461.38 207.389 461.38C205.007 461.38 202.943 460.861 201.195 459.822C199.472 458.758 198.129 457.263 197.167 455.338C196.229 453.413 195.761 451.12 195.761 448.46C195.761 445.8 196.229 443.507 197.167 441.582C198.129 439.657 199.472 438.175 201.195 437.136C202.943 436.072 204.982 435.54 207.313 435.54C209.745 435.54 211.771 436.047 213.393 437.06C215.039 438.048 216.255 439.492 217.041 441.392L214.039 442.798C213.481 441.354 212.671 440.265 211.607 439.53C210.568 438.77 209.213 438.39 207.541 438.39C205.843 438.39 204.349 438.795 203.057 439.606C201.765 440.391 200.751 441.531 200.017 443.026C199.307 444.521 198.953 446.332 198.953 448.46C198.953 451.601 199.7 454.071 201.195 455.87C202.715 457.643 204.779 458.53 207.389 458.53C209.061 458.53 210.517 458.112 211.759 457.276C213 456.415 213.899 455.135 214.457 453.438L217.497 454.578ZM225.65 433.26V456.174C225.65 457.137 225.827 457.808 226.182 458.188C226.536 458.543 227.106 458.72 227.892 458.72C228.398 458.72 228.816 458.682 229.146 458.606C229.475 458.53 229.918 458.391 230.476 458.188L229.982 460.848C229.146 461.203 228.208 461.38 227.17 461.38C224.13 461.38 222.61 459.683 222.61 456.288V433.26H225.65ZM245.473 448.726C245.473 447.307 245.093 446.218 244.333 445.458C243.573 444.673 242.496 444.28 241.103 444.28C239.785 444.28 238.671 444.571 237.759 445.154C236.847 445.711 236.175 446.623 235.745 447.89L233.275 446.37C233.781 444.951 234.719 443.811 236.087 442.95C237.455 442.063 239.152 441.62 241.179 441.62C242.547 441.62 243.788 441.861 244.903 442.342C246.017 442.798 246.891 443.507 247.525 444.47C248.183 445.407 248.513 446.623 248.513 448.118V457.314C248.513 458.226 248.994 458.682 249.957 458.682C250.438 458.682 250.907 458.619 251.363 458.492L251.211 460.886C250.704 461.139 250.045 461.266 249.235 461.266C248.297 461.266 247.487 461.038 246.803 460.582C246.144 460.126 245.713 459.429 245.511 458.492C244.852 459.48 243.953 460.215 242.813 460.696C241.673 461.152 240.545 461.38 239.431 461.38C238.316 461.38 237.277 461.19 236.315 460.81C235.352 460.43 234.579 459.86 233.997 459.1C233.439 458.315 233.161 457.352 233.161 456.212C233.161 454.793 233.629 453.628 234.567 452.716C235.529 451.779 236.859 451.145 238.557 450.816L245.473 449.448V448.726ZM236.277 456.06C236.277 456.845 236.581 457.491 237.189 457.998C237.822 458.479 238.709 458.72 239.849 458.72C240.837 458.72 241.749 458.555 242.585 458.226C243.446 457.871 244.143 457.352 244.675 456.668C245.207 455.959 245.473 455.059 245.473 453.97V451.956L239.963 453.096C238.721 453.349 237.797 453.704 237.189 454.16C236.581 454.616 236.277 455.249 236.277 456.06ZM257.42 438.352C256.736 438.352 256.179 438.149 255.748 437.744C255.343 437.313 255.14 436.756 255.14 436.072C255.14 435.388 255.343 434.843 255.748 434.438C256.179 434.007 256.736 433.792 257.42 433.792C258.104 433.792 258.649 434.007 259.054 434.438C259.485 434.843 259.7 435.388 259.7 436.072C259.7 436.756 259.485 437.313 259.054 437.744C258.649 438.149 258.104 438.352 257.42 438.352ZM258.94 442V461H255.9V442H258.94ZM265.994 461V442H268.464L268.882 445.116C269.946 442.785 271.973 441.62 274.962 441.62C275.291 441.62 275.646 441.645 276.026 441.696C276.431 441.747 276.773 441.848 277.052 442L276.52 444.774C276.241 444.673 275.937 444.597 275.608 444.546C275.279 444.495 274.81 444.47 274.202 444.47C273.417 444.47 272.619 444.698 271.808 445.154C271.023 445.61 270.364 446.307 269.832 447.244C269.3 448.156 269.034 449.321 269.034 450.74V461H265.994ZM288.854 461.38C287.055 461.38 285.447 460.987 284.028 460.202C282.635 459.417 281.545 458.289 280.76 456.82C279.975 455.325 279.582 453.552 279.582 451.5C279.582 449.448 279.975 447.687 280.76 446.218C281.545 444.723 282.622 443.583 283.99 442.798C285.358 442.013 286.916 441.62 288.664 441.62C290.437 441.62 291.945 442 293.186 442.76C294.453 443.52 295.415 444.559 296.074 445.876C296.733 447.168 297.062 448.625 297.062 450.246C297.062 450.677 297.049 451.069 297.024 451.424C296.999 451.779 296.961 452.095 296.91 452.374H282.584C282.736 454.375 283.357 455.933 284.446 457.048C285.535 458.163 286.979 458.72 288.778 458.72C290.171 458.72 291.299 458.454 292.16 457.922C293.047 457.39 293.756 456.668 294.288 455.756L296.682 457.162C295.973 458.454 294.947 459.48 293.604 460.24C292.287 461 290.703 461.38 288.854 461.38ZM288.588 444.28C286.992 444.28 285.675 444.761 284.636 445.724C283.623 446.661 282.977 447.979 282.698 449.676H294.022C293.946 447.953 293.414 446.623 292.426 445.686C291.438 444.749 290.159 444.28 288.588 444.28ZM304.364 456.44C305.25 456.44 305.947 456.782 306.454 457.466C306.96 458.15 307.214 459.037 307.214 460.126C307.214 461.393 306.884 462.609 306.226 463.774C305.567 464.939 304.516 465.864 303.072 466.548L301.476 465.066C302.514 464.711 303.35 464.167 303.984 463.432C304.617 462.723 305.022 461.975 305.2 461.19L305.048 461.114C304.946 461.19 304.82 461.253 304.668 461.304C304.516 461.355 304.288 461.38 303.984 461.38C303.528 461.38 303.059 461.19 302.578 460.81C302.122 460.405 301.894 459.797 301.894 458.986C301.894 458.302 302.134 457.707 302.616 457.2C303.097 456.693 303.68 456.44 304.364 456.44ZM330.866 435.92V446.218H341.924V435.92H347.168V461H341.924V450.436H330.866V461H325.622V435.92H330.866ZM364.772 435.92C367.584 435.92 369.801 436.604 371.422 437.972C373.069 439.34 373.892 441.177 373.892 443.482C373.892 445.331 373.424 446.864 372.486 448.08C371.574 449.271 370.282 450.107 368.61 450.588L375.374 461H369.484L363.594 451.386H358.882V461H353.714V435.92H364.772ZM364.164 447.396C367.078 447.396 368.534 446.18 368.534 443.748C368.534 441.316 367.078 440.1 364.164 440.1H358.882V447.396H364.164ZM387.232 461L396.39 435.92H402.66L411.818 461H406.384L404.294 454.882H394.642L392.59 461H387.232ZM398.366 443.862L395.934 451.006H403.002L400.646 443.938L399.506 440.138H399.43L398.366 443.862ZM421.743 461.38C420.173 461.38 418.767 460.987 417.525 460.202C416.309 459.417 415.347 458.302 414.637 456.858C413.953 455.389 413.611 453.615 413.611 451.538C413.611 449.435 413.979 447.649 414.713 446.18C415.448 444.685 416.436 443.558 417.677 442.798C418.944 442.013 420.363 441.62 421.933 441.62C423.301 441.62 424.479 441.949 425.467 442.608C426.455 443.267 427.203 444.141 427.709 445.23V433.678H432.915V461H428.241L428.013 457.314C427.481 458.581 426.658 459.581 425.543 460.316C424.429 461.025 423.162 461.38 421.743 461.38ZM423.263 457.39C424.606 457.39 425.683 456.871 426.493 455.832C427.304 454.768 427.709 453.273 427.709 451.348C427.709 449.524 427.304 448.118 426.493 447.13C425.708 446.117 424.657 445.61 423.339 445.61C421.921 445.61 420.806 446.117 419.995 447.13C419.21 448.118 418.817 449.575 418.817 451.5C418.817 453.425 419.21 454.895 419.995 455.908C420.781 456.896 421.87 457.39 423.263 457.39ZM438.385 461V442H443.059L443.249 445.42C443.883 444.153 444.744 443.203 445.833 442.57C446.948 441.937 448.177 441.62 449.519 441.62C450.887 441.62 452.116 441.937 453.205 442.57C454.32 443.178 455.156 444.115 455.713 445.382C456.296 444.115 457.195 443.178 458.411 442.57C459.627 441.937 460.881 441.62 462.173 441.62C463.415 441.62 464.542 441.873 465.555 442.38C466.594 442.887 467.417 443.647 468.025 444.66C468.633 445.673 468.937 446.965 468.937 448.536V461H463.731V449.562C463.731 448.169 463.415 447.181 462.781 446.598C462.173 446.015 461.401 445.724 460.463 445.724C459.298 445.724 458.31 446.155 457.499 447.016C456.689 447.852 456.283 449.106 456.283 450.778V461H451.077V449.562C451.077 448.169 450.761 447.181 450.127 446.598C449.519 446.015 448.734 445.724 447.771 445.724C447.113 445.724 446.454 445.901 445.795 446.256C445.162 446.611 444.63 447.168 444.199 447.928C443.794 448.688 443.591 449.689 443.591 450.93V461H438.385ZM476.929 439.264C474.776 439.264 473.699 438.339 473.699 436.49C473.699 434.615 474.776 433.678 476.929 433.678C479.083 433.678 480.159 434.615 480.159 436.49C480.159 438.339 479.083 439.264 476.929 439.264ZM479.513 442V461H474.307V442H479.513ZM485.032 461V442H489.706L489.896 445.572C490.479 444.255 491.327 443.267 492.442 442.608C493.582 441.949 494.887 441.62 496.356 441.62C498.332 441.62 499.966 442.203 501.258 443.368C502.55 444.508 503.196 446.231 503.196 448.536V461H497.99V450.018C497.99 448.397 497.661 447.282 497.002 446.674C496.369 446.041 495.558 445.724 494.57 445.724C493.861 445.724 493.164 445.901 492.48 446.256C491.821 446.585 491.277 447.13 490.846 447.89C490.441 448.65 490.238 449.663 490.238 450.93V461H485.032Z" fill="#111111"/>
<mask id="mask0" mask-type="alpha" maskUnits="userSpaceOnUse" x="229" y="145" width="240" height="240">
<path d="M349 385C415.274 385 469 331.274 469 265C469 198.726 415.274 145 349 145C282.726 145 229 198.726 229 265C229 331.274 282.726 385 349 385Z" fill="white"/>
</mask>
<g mask="url(#mask0)">
<path d="M349 385C415.274 385 469 331.274 469 265C469 198.726 415.274 145 349 145C282.726 145 229 198.726 229 265C229 331.274 282.726 385 349 385Z" fill="#E6E6E6"/>
<path d="M469 145H229V385H469V145Z" fill="#DDD8EE"/>
</g>
<mask id="mask1" mask-type="alpha" maskUnits="userSpaceOnUse" x="217" y="105" width="264" height="280">
<path d="M229 265C229 331.274 282.726 385 349 385C415.274 385 469 331.274 469 265H481V105H217V265H229Z" fill="white"/>
</mask>
<g mask="url(#mask1)">
<mask id="mask2" mask-type="alpha" maskUnits="userSpaceOnUse" x="249" y="141" width="200" height="244">
<path d="M373 285.611V304H377C416.765 304 449 336.235 449 376V385H249V376C249 336.235 281.235 304 321 304H325V285.611C307.763 277.422 295.372 260.687 293.305 240.881C287.48 240.058 283 235.052 283 229V215C283 209.054 287.325 204.118 293 203.166V197C293 166.072 318.072 141 349 141C379.928 141 405 166.072 405 197V203.166C410.675 204.118 415 209.054 415 215V229C415 235.052 410.52 240.058 404.695 240.881C402.628 260.687 390.237 277.422 373 285.611Z" fill="white"/>
</mask>
<g mask="url(#mask2)">
<path d="M373 285.611V304H377C416.765 304 449 336.235 449 376V385H249V376C249 336.235 281.235 304 321 304H325V285.611C307.763 277.422 295.372 260.687 293.305 240.881C287.48 240.058 283 235.052 283 229V215C283 209.054 287.325 204.118 293 203.166V197C293 166.072 318.072 141 349 141C379.928 141 405 166.072 405 197V203.166C410.675 204.118 415 209.054 415 215V229C415 235.052 410.52 240.058 404.695 240.881C402.628 260.687 390.237 277.422 373 285.611Z" fill="#D0C6AC"/>
<path d="M513 141H249V421H513V141Z" fill="#EDB98A"/>
<path fill-rule="evenodd" clip-rule="evenodd" d="M405 220V243C405 273.928 379.928 299 349 299C318.072 299 293 273.928 293 243V220V235C293 265.928 318.072 291 349 291C379.928 291 405 265.928 405 235V220Z" fill="black" fill-opacity="0.1"/>
</g>
<mask id="mask3" mask-type="alpha" maskUnits="userSpaceOnUse" x="249" y="307" width="200" height="78">
<path fill-rule="evenodd" clip-rule="evenodd" d="M398.544 307.33C427.784 316.488 449 343.792 449 376.052V385H249V376.052C249 343.397 270.739 315.82 300.534 307.002C300.182 308.42 300 309.871 300 311.348C300 327.629 322.162 340.828 349.5 340.828C376.838 340.828 399 327.629 399 311.348C399 309.985 398.845 308.644 398.544 307.33Z" fill="white"/>
</mask>
<g mask="url(#mask3)">
<path fill-rule="evenodd" clip-rule="evenodd" d="M398.544 307.33C427.784 316.488 449 343.792 449 376.052V385H249V376.052C249 343.397 270.739 315.82 300.534 307.002C300.182 308.42 300 309.871 300 311.348C300 327.629 322.162 340.828 349.5 340.828C376.838 340.828 399 327.629 399 311.348C399 309.985 398.845 308.644 398.544 307.33Z" fill="#E6E6E6"/>
<path d="M481 275H217V385H481V275Z" fill="#262E33"/>
</g>
<path d="M335 255C335 260.372 341.158 264 349 264C356.842 264 363 260.372 363 255C363 253.895 362.05 253 361 253C359.707 253 359.13 253.905 359 255C357.758 257.938 354.683 259.716 349 260C343.317 259.716 340.242 257.938 339 255C338.87 253.905 338.293 253 337 253C335.95 253 335 253.895 335 255Z" fill="black" fill-opacity="0.6"/>
<path fill-rule="evenodd" clip-rule="evenodd" d="M337 235C337 239.418 342.373 243 349 243C355.627 243 361 239.418 361 235" fill="black" fill-opacity="0.16"/>
<path fill-rule="evenodd" clip-rule="evenodd" d="M309.16 217.447C311.007 213.649 315.164 211 319.998 211C324.814 211 328.959 213.63 330.815 217.407C331.367 218.529 330.582 219.447 329.791 218.767C327.34 216.66 323.859 215.344 319.998 215.344C316.257 215.344 312.874 216.579 310.438 218.572C309.547 219.3 308.62 218.558 309.16 217.447Z" fill="black" fill-opacity="0.6"/>
<path fill-rule="evenodd" clip-rule="evenodd" d="M367.16 217.447C369.007 213.649 373.164 211 377.998 211C382.814 211 386.959 213.63 388.815 217.407C389.367 218.529 388.582 219.447 387.791 218.767C385.34 216.66 381.859 215.344 377.998 215.344C374.257 215.344 370.874 216.579 368.438 218.572C367.547 219.3 366.62 218.558 367.16 217.447Z" fill="black" fill-opacity="0.6"/>
<path d="M308.63 204.158C312.545 198.65 323.278 195.561 332.523 197.831C333.596 198.094 334.679 197.438 334.942 196.366C335.206 195.293 334.55 194.21 333.477 193.946C322.74 191.31 310.312 194.887 305.37 201.841C304.73 202.742 304.941 203.99 305.841 204.63C306.742 205.27 307.99 205.059 308.63 204.158Z" fill="black" fill-opacity="0.6"/>
<path d="M389.37 204.158C385.455 198.65 374.722 195.561 365.477 197.831C364.405 198.094 363.321 197.438 363.058 196.366C362.795 195.293 363.451 194.21 364.523 193.946C375.26 191.31 387.688 194.887 392.631 201.841C393.27 202.742 393.059 203.99 392.159 204.63C391.259 205.27 390.01 205.059 389.37 204.158Z" fill="black" fill-opacity="0.6"/>
<mask id="mask4" mask-type="alpha" maskUnits="userSpaceOnUse" x="217" y="105" width="264" height="280">
<path d="M481 105H217V385H481V105Z" fill="white"/>
</mask>
<g mask="url(#mask4)">
<mask id="mask5" mask-type="alpha" maskUnits="userSpaceOnUse" x="266" y="123" width="157" height="172">
<path fill-rule="evenodd" clip-rule="evenodd" d="M275 207.34C275 223.921 275 250.474 275 287C275 291.418 278.582 295 283 295H325V285.611C307.469 277.283 294.952 260.115 293.209 239.867C287.431 239.002 283 234.019 283 228V215C283 211.509 284.49 208.367 286.869 206.174C298.409 203.555 310.971 198.638 323.342 191.495C335.473 184.491 345.844 176.258 353.821 167.752C350.394 175.66 346.245 182.588 341.372 188.535C354.047 183.012 362.678 174.132 367.264 161.896C367.641 162.818 368.035 163.739 368.444 164.658C378.7 187.693 396.318 204.019 414.206 209.403C414.719 211.513 415 213.484 415 215V228C415 234.019 410.569 239.002 404.791 239.867C403.048 260.115 390.531 277.283 373 285.611V295H391C408.673 295 423 280.673 423 263C423 238.944 423 220.903 423 208.875C423 208.808 422.991 208.721 422.972 208.615C422.828 196.354 422.624 189.224 422.36 187.226C417.577 150.976 386.556 123 349 123C312.915 123 282.863 148.828 276 183C270.477 183 266 188.596 266 195.5C266 200.051 267.695 204.143 270.853 206.273C271.758 206.883 273.324 207.198 275 207.34V207.34Z" fill="white"/>
</mask>
<g mask="url(#mask5)">
<path fill-rule="evenodd" clip-rule="evenodd" d="M275 207.34C275 223.921 275 250.474 275 287C275 291.418 278.582 295 283 295H325V285.611C307.469 277.283 294.952 260.115 293.209 239.867C287.431 239.002 283 234.019 283 228V215C283 211.509 284.49 208.367 286.869 206.174C298.409 203.555 310.971 198.638 323.342 191.495C335.473 184.491 345.844 176.258 353.821 167.752C350.394 175.66 346.245 182.588 341.372 188.535C354.047 183.012 362.678 174.132 367.264 161.896C367.641 162.818 368.035 163.739 368.444 164.658C378.7 187.693 396.318 204.019 414.206 209.403C414.719 211.513 415 213.484 415 215V228C415 234.019 410.569 239.002 404.791 239.867C403.048 260.115 390.531 277.283 373 285.611V295H391C408.673 295 423 280.673 423 263C423 238.944 423 220.903 423 208.875C423 208.808 422.991 208.721 422.972 208.615C422.828 196.354 422.624 189.224 422.36 187.226C417.577 150.976 386.556 123 349 123C312.915 123 282.863 148.828 276 183C270.477 183 266 188.596 266 195.5C266 200.051 267.695 204.143 270.853 206.273C271.758 206.883 273.324 207.198 275 207.34V207.34Z" fill="#944F23"/>
<path d="M480 105H216V385H480V105Z" fill="#724133"/>
</g>
<g opacity="0.439991">
<path opacity="0.439991" fill-rule="evenodd" clip-rule="evenodd" d="M277.899 207.775C291.711 206.015 307.679 200.538 323.342 191.495C335.473 184.491 345.844 176.258 353.821 167.752C350.394 175.66 346.245 182.588 341.372 188.535C354.047 183.012 362.678 174.132 367.264 161.896C367.641 162.818 368.035 163.739 368.444 164.658C380.382 191.471 402.296 209.194 423 211.151V197C423 156.131 389.869 123 349 123C312.915 123 282.863 148.828 276.321 183.006C276.215 183.002 276.107 183 276 183C270.477 183 266 188.596 266 195.5C266 201.982 269.947 207.311 275 207.938V208.093C275.316 208.064 275.634 208.033 275.953 208C275.968 208 275.984 208 276 208C276.649 208 277.284 207.923 277.899 207.775Z" fill="white" fill-opacity="0.16"/>
</g>
<g filter="url(#filter0_d)">
<path fill-rule="evenodd" clip-rule="evenodd" d="M358.465 206.394C362.38 198.459 370.553 193 380 193C388.92 193 396.703 197.866 400.84 205.088C401.05 205.031 401.272 205 401.5 205H409.5C410.881 205 412 206.119 412 207.5C412 208.881 410.881 210 409.5 210H402.963C403.637 212.215 404 214.565 404 217C404 230.255 393.255 241 380 241C366.745 241 356 230.255 356 217C356 215.578 356.124 214.185 356.361 212.831C356.276 208.455 352.914 205 348.862 205C345.126 205 341.975 207.94 341.442 211.83C341.807 213.495 342 215.225 342 217C342 230.255 331.255 241 318 241C304.745 241 294 230.255 294 217C294 214.565 294.363 212.215 295.037 210H288.5C287.119 210 286 208.881 286 207.5C286 206.119 287.119 205 288.5 205H296.5C296.728 205 296.95 205.031 297.16 205.088C301.297 197.866 309.08 193 318 193C327.352 193 335.455 198.349 339.416 206.155C341.493 203.039 344.949 201 348.862 201C352.875 201 356.407 203.144 358.465 206.394ZM318 237C329.046 237 338 228.046 338 217C338 205.954 329.046 197 318 197C306.954 197 298 205.954 298 217C298 228.046 306.954 237 318 237ZM380 237C391.046 237 400 228.046 400 217C400 205.954 391.046 197 380 197C368.954 197 360 205.954 360 217C360 228.046 368.954 237 380 237Z" fill="black"/>
</g>
<path fill-rule="evenodd" clip-rule="evenodd" d="M358.465 206.394C362.38 198.459 370.553 193 380 193C388.92 193 396.703 197.866 400.84 205.088C401.05 205.031 401.272 205 401.5 205H409.5C410.881 205 412 206.119 412 207.5C412 208.881 410.881 210 409.5 210H402.963C403.637 212.215 404 214.565 404 217C404 230.255 393.255 241 380 241C366.745 241 356 230.255 356 217C356 215.578 356.124 214.185 356.361 212.831C356.276 208.455 352.914 205 348.862 205C345.126 205 341.975 207.94 341.442 211.83C341.807 213.495 342 215.225 342 217C342 230.255 331.255 241 318 241C304.745 241 294 230.255 294 217C294 214.565 294.363 212.215 295.037 210H288.5C287.119 210 286 208.881 286 207.5C286 206.119 287.119 205 288.5 205H296.5C296.728 205 296.95 205.031 297.16 205.088C301.297 197.866 309.08 193 318 193C327.352 193 335.455 198.349 339.416 206.155C341.493 203.039 344.949 201 348.862 201C352.875 201 356.407 203.144 358.465 206.394ZM318 237C329.046 237 338 228.046 338 217C338 205.954 329.046 197 318 197C306.954 197 298 205.954 298 217C298 228.046 306.954 237 318 237ZM380 237C391.046 237 400 228.046 400 217C400 205.954 391.046 197 380 197C368.954 197 360 205.954 360 217C360 228.046 368.954 237 380 237Z" fill="#252C2F"/>
</g>
</g>
<rect x="784" y="502" width="208" height="77" rx="4" fill="#DCF2F1"/>
<path d="M838.552 528.92V554H833.84V540.928L834.068 533.594H833.992L827.038 554H822.744L815.828 533.594H815.752L816.018 540.928V554H811.268V528.92H818.868L823.39 542.6L824.986 548.262H825.062L826.696 542.638L831.18 528.92H838.552ZM855.224 541.878C855.224 540.789 854.908 539.94 854.274 539.332C853.666 538.724 852.856 538.42 851.842 538.42C850.905 538.42 850.082 538.661 849.372 539.142C848.663 539.623 848.144 540.421 847.814 541.536L843.368 540.168C843.799 538.496 844.736 537.153 846.18 536.14C847.65 535.127 849.613 534.62 852.07 534.62C854.553 534.62 856.554 535.215 858.074 536.406C859.62 537.571 860.392 539.319 860.392 541.65V549.364C860.392 550.327 860.848 550.808 861.76 550.808C862.191 550.808 862.596 550.745 862.976 550.618L862.672 553.848C862.014 554.177 861.19 554.342 860.202 554.342C859.113 554.342 858.163 554.114 857.352 553.658C856.567 553.202 856.035 552.518 855.756 551.606C855.148 552.518 854.274 553.215 853.134 553.696C852.02 554.152 850.867 554.38 849.676 554.38C847.751 554.38 846.218 553.949 845.078 553.088C843.964 552.201 843.406 550.922 843.406 549.25C843.406 547.831 843.862 546.679 844.774 545.792C845.686 544.88 846.991 544.259 848.688 543.93L855.224 542.6V541.878ZM848.612 548.756C848.612 549.389 848.84 549.871 849.296 550.2C849.778 550.529 850.348 550.694 851.006 550.694C851.741 550.694 852.425 550.58 853.058 550.352C853.692 550.124 854.211 549.744 854.616 549.212C855.022 548.655 855.224 547.92 855.224 547.008V545.83L851.234 546.628C850.373 546.805 849.714 547.046 849.258 547.35C848.828 547.629 848.612 548.097 848.612 548.756ZM866.215 554V535H870.889L871.079 538.572C871.661 537.255 872.51 536.267 873.625 535.608C874.765 534.949 876.069 534.62 877.539 534.62C879.515 534.62 881.149 535.203 882.441 536.368C883.733 537.508 884.379 539.231 884.379 541.536V554H879.173V543.018C879.173 541.397 878.843 540.282 878.185 539.674C877.551 539.041 876.741 538.724 875.753 538.724C875.043 538.724 874.347 538.901 873.663 539.256C873.004 539.585 872.459 540.13 872.029 540.89C871.623 541.65 871.421 542.663 871.421 543.93V554H866.215ZM900.572 541.878C900.572 540.789 900.255 539.94 899.622 539.332C899.014 538.724 898.203 538.42 897.19 538.42C896.253 538.42 895.429 538.661 894.72 539.142C894.011 539.623 893.491 540.421 893.162 541.536L888.716 540.168C889.147 538.496 890.084 537.153 891.528 536.14C892.997 535.127 894.961 534.62 897.418 534.62C899.901 534.62 901.902 535.215 903.422 536.406C904.967 537.571 905.74 539.319 905.74 541.65V549.364C905.74 550.327 906.196 550.808 907.108 550.808C907.539 550.808 907.944 550.745 908.324 550.618L908.02 553.848C907.361 554.177 906.538 554.342 905.55 554.342C904.461 554.342 903.511 554.114 902.7 553.658C901.915 553.202 901.383 552.518 901.104 551.606C900.496 552.518 899.622 553.215 898.482 553.696C897.367 554.152 896.215 554.38 895.024 554.38C893.099 554.38 891.566 553.949 890.426 553.088C889.311 552.201 888.754 550.922 888.754 549.25C888.754 547.831 889.21 546.679 890.122 545.792C891.034 544.88 892.339 544.259 894.036 543.93L900.572 542.6V541.878ZM893.96 548.756C893.96 549.389 894.188 549.871 894.644 550.2C895.125 550.529 895.695 550.694 896.354 550.694C897.089 550.694 897.773 550.58 898.406 550.352C899.039 550.124 899.559 549.744 899.964 549.212C900.369 548.655 900.572 547.92 900.572 547.008V545.83L896.582 546.628C895.721 546.805 895.062 547.046 894.606 547.35C894.175 547.629 893.96 548.097 893.96 548.756ZM922.96 550.428C925.012 550.428 926.595 550.871 927.71 551.758C928.824 552.645 929.382 553.886 929.382 555.482C929.382 556.951 928.964 558.18 928.127 559.168C927.292 560.156 926.114 560.903 924.594 561.41C923.099 561.917 921.364 562.17 919.388 562.17C916.12 562.17 913.726 561.714 912.206 560.802C910.711 559.89 909.964 558.699 909.964 557.23C909.964 556.369 910.23 555.609 910.762 554.95C911.319 554.317 912.206 553.873 913.422 553.62C911.724 552.987 910.876 551.796 910.876 550.048C910.876 549.187 911.129 548.427 911.636 547.768C912.168 547.109 912.89 546.615 913.802 546.286C911.8 545.171 910.8 543.436 910.8 541.08C910.8 539.079 911.572 537.508 913.118 536.368C914.663 535.203 916.778 534.62 919.464 534.62C920.984 534.62 922.352 534.823 923.568 535.228C923.745 533.911 924.277 532.796 925.164 531.884C926.05 530.947 927.254 530.478 928.774 530.478C928.824 530.478 928.888 530.478 928.964 530.478C929.04 530.478 929.116 530.478 929.192 530.478L929.8 534.202C929.597 534.177 929.369 534.164 929.116 534.164C928.153 534.164 927.38 534.354 926.798 534.734C926.215 535.089 925.848 535.608 925.696 536.292C927.317 537.432 928.127 539.028 928.127 541.08C928.127 543.056 927.342 544.627 925.772 545.792C924.226 546.932 922.124 547.502 919.464 547.502C918.298 547.502 917.234 547.401 916.272 547.198C915.689 547.35 915.271 547.578 915.018 547.882C914.79 548.161 914.676 548.477 914.676 548.832C914.676 549.896 915.486 550.428 917.108 550.428H922.96ZM919.464 537.888C918.45 537.888 917.614 538.167 916.956 538.724C916.297 539.281 915.968 540.054 915.968 541.042C915.968 542.03 916.297 542.815 916.956 543.398C917.614 543.955 918.45 544.234 919.464 544.234C920.452 544.234 921.275 543.955 921.934 543.398C922.592 542.815 922.922 542.03 922.922 541.042C922.922 540.054 922.592 539.281 921.934 538.724C921.275 538.167 920.452 537.888 919.464 537.888ZM919.426 558.598C921.376 558.598 922.82 558.357 923.758 557.876C924.72 557.42 925.202 556.863 925.202 556.204C925.202 555.723 925.012 555.33 924.632 555.026C924.252 554.747 923.568 554.608 922.58 554.608H916.158C915.55 554.608 915.043 554.76 914.638 555.064C914.258 555.393 914.068 555.811 914.068 556.318C914.068 557.027 914.536 557.585 915.474 557.99C916.436 558.395 917.754 558.598 919.426 558.598ZM941.345 554.38C938.356 554.38 935.962 553.519 934.163 551.796C932.364 550.048 931.465 547.616 931.465 544.5C931.465 542.423 931.87 540.649 932.681 539.18C933.492 537.711 934.619 536.583 936.063 535.798C937.532 535.013 939.204 534.62 941.079 534.62C943.004 534.62 944.638 535.013 945.981 535.798C947.324 536.558 948.35 537.609 949.059 538.952C949.768 540.269 950.123 541.777 950.123 543.474C950.123 543.981 950.11 544.462 950.085 544.918C950.06 545.374 950.022 545.779 949.971 546.134H936.557C936.76 547.603 937.266 548.705 938.077 549.44C938.913 550.149 939.99 550.504 941.307 550.504C942.422 550.504 943.321 550.289 944.005 549.858C944.689 549.427 945.221 548.832 945.601 548.072L949.743 549.668C949.135 551.163 948.071 552.328 946.551 553.164C945.031 553.975 943.296 554.38 941.345 554.38ZM941.041 538.458C938.584 538.458 937.102 539.813 936.595 542.524H945.145C944.993 541.207 944.562 540.206 943.853 539.522C943.169 538.813 942.232 538.458 941.041 538.458ZM954.535 554V535H959.057L959.399 538.724C959.88 537.432 960.602 536.431 961.565 535.722C962.553 534.987 963.794 534.62 965.289 534.62C966.175 534.62 966.859 534.759 967.341 535.038L966.733 539.408C966.479 539.332 966.163 539.269 965.783 539.218C965.428 539.142 964.959 539.104 964.377 539.104C963.591 539.104 962.844 539.294 962.135 539.674C961.451 540.029 960.881 540.586 960.425 541.346C959.969 542.081 959.741 543.018 959.741 544.158V554H954.535Z" fill="#18ACA7"/>
<path d="M714.766 454.578C713.981 456.731 712.689 458.403 710.89 459.594C709.092 460.785 707.014 461.38 704.658 461.38C702.277 461.38 700.212 460.861 698.464 459.822C696.742 458.758 695.399 457.263 694.436 455.338C693.499 453.413 693.03 451.12 693.03 448.46C693.03 445.8 693.499 443.507 694.436 441.582C695.399 439.657 696.742 438.175 698.464 437.136C700.212 436.072 702.252 435.54 704.582 435.54C707.014 435.54 709.041 436.047 710.662 437.06C712.309 438.048 713.525 439.492 714.31 441.392L711.308 442.798C710.751 441.354 709.94 440.265 708.876 439.53C707.838 438.77 706.482 438.39 704.81 438.39C703.113 438.39 701.618 438.795 700.326 439.606C699.034 440.391 698.021 441.531 697.286 443.026C696.577 444.521 696.222 446.332 696.222 448.46C696.222 451.601 696.97 454.071 698.464 455.87C699.984 457.643 702.049 458.53 704.658 458.53C706.33 458.53 707.787 458.112 709.028 457.276C710.27 456.415 711.169 455.135 711.726 453.438L714.766 454.578ZM720.031 461V433.26H723.071V444.85C723.73 443.71 724.604 442.887 725.693 442.38C726.782 441.873 727.973 441.62 729.265 441.62C730.633 441.62 731.874 441.886 732.989 442.418C734.104 442.925 734.99 443.71 735.649 444.774C736.333 445.838 736.675 447.193 736.675 448.84V461H733.635V449.904C733.635 447.801 733.179 446.345 732.267 445.534C731.38 444.698 730.278 444.28 728.961 444.28C728.049 444.28 727.137 444.495 726.225 444.926C725.313 445.357 724.553 446.066 723.945 447.054C723.362 448.017 723.071 449.309 723.071 450.93V461H720.031ZM754.654 448.726C754.654 447.307 754.274 446.218 753.514 445.458C752.754 444.673 751.678 444.28 750.284 444.28C748.967 444.28 747.852 444.571 746.94 445.154C746.028 445.711 745.357 446.623 744.926 447.89L742.456 446.37C742.963 444.951 743.9 443.811 745.268 442.95C746.636 442.063 748.334 441.62 750.36 441.62C751.728 441.62 752.97 441.861 754.084 442.342C755.199 442.798 756.073 443.507 756.706 444.47C757.365 445.407 757.694 446.623 757.694 448.118V457.314C757.694 458.226 758.176 458.682 759.138 458.682C759.62 458.682 760.088 458.619 760.544 458.492L760.392 460.886C759.886 461.139 759.227 461.266 758.416 461.266C757.479 461.266 756.668 461.038 755.984 460.582C755.326 460.126 754.895 459.429 754.692 458.492C754.034 459.48 753.134 460.215 751.994 460.696C750.854 461.152 749.727 461.38 748.612 461.38C747.498 461.38 746.459 461.19 745.496 460.81C744.534 460.43 743.761 459.86 743.178 459.1C742.621 458.315 742.342 457.352 742.342 456.212C742.342 454.793 742.811 453.628 743.748 452.716C744.711 451.779 746.041 451.145 747.738 450.816L754.654 449.448V448.726ZM745.458 456.06C745.458 456.845 745.762 457.491 746.37 457.998C747.004 458.479 747.89 458.72 749.03 458.72C750.018 458.72 750.93 458.555 751.766 458.226C752.628 457.871 753.324 457.352 753.856 456.668C754.388 455.959 754.654 455.059 754.654 453.97V451.956L749.144 453.096C747.903 453.349 746.978 453.704 746.37 454.16C745.762 454.616 745.458 455.249 745.458 456.06ZM765.082 461V442H767.552L767.97 445.116C769.034 442.785 771.061 441.62 774.05 441.62C774.379 441.62 774.734 441.645 775.114 441.696C775.519 441.747 775.861 441.848 776.14 442L775.608 444.774C775.329 444.673 775.025 444.597 774.696 444.546C774.367 444.495 773.898 444.47 773.29 444.47C772.505 444.47 771.707 444.698 770.896 445.154C770.111 445.61 769.452 446.307 768.92 447.244C768.388 448.156 768.122 449.321 768.122 450.74V461H765.082ZM783.482 433.26V456.174C783.482 457.137 783.659 457.808 784.014 458.188C784.368 458.543 784.938 458.72 785.724 458.72C786.23 458.72 786.648 458.682 786.978 458.606C787.307 458.53 787.75 458.391 788.308 458.188L787.814 460.848C786.978 461.203 786.04 461.38 785.002 461.38C781.962 461.38 780.442 459.683 780.442 456.288V433.26H783.482ZM800.075 441.62C801.873 441.62 803.457 442.013 804.825 442.798C806.218 443.583 807.307 444.723 808.093 446.218C808.878 447.687 809.271 449.448 809.271 451.5C809.271 453.552 808.878 455.325 808.093 456.82C807.307 458.289 806.218 459.417 804.825 460.202C803.457 460.987 801.873 461.38 800.075 461.38C798.301 461.38 796.718 460.987 795.325 460.202C793.931 459.417 792.842 458.289 792.057 456.82C791.271 455.325 790.879 453.552 790.879 451.5C790.879 449.448 791.271 447.687 792.057 446.218C792.842 444.723 793.931 443.583 795.325 442.798C796.718 442.013 798.301 441.62 800.075 441.62ZM800.075 444.242C798.149 444.242 796.642 444.888 795.553 446.18C794.463 447.472 793.919 449.245 793.919 451.5C793.919 453.755 794.463 455.528 795.553 456.82C796.642 458.112 798.149 458.758 800.075 458.758C802 458.758 803.507 458.112 804.597 456.82C805.686 455.528 806.231 453.755 806.231 451.5C806.231 449.245 805.686 447.472 804.597 446.18C803.507 444.888 802 444.242 800.075 444.242ZM826.06 442V444.622H819.144V455.756C819.144 456.693 819.41 457.39 819.942 457.846C820.474 458.302 821.158 458.53 821.994 458.53C822.729 458.53 823.362 458.403 823.894 458.15C824.426 457.897 824.907 457.555 825.338 457.124L826.402 459.67C825.819 460.202 825.123 460.62 824.312 460.924C823.527 461.228 822.615 461.38 821.576 461.38C820.613 461.38 819.714 461.215 818.878 460.886C818.042 460.531 817.371 459.987 816.864 459.252C816.383 458.492 816.129 457.504 816.104 456.288V444.622H812.304V442H816.104V437.44L819.144 436.604V442H826.06ZM839.531 442V444.622H832.615V455.756C832.615 456.693 832.881 457.39 833.413 457.846C833.945 458.302 834.629 458.53 835.465 458.53C836.199 458.53 836.833 458.403 837.365 458.15C837.897 457.897 838.378 457.555 838.809 457.124L839.873 459.67C839.29 460.202 838.593 460.62 837.783 460.924C836.997 461.228 836.085 461.38 835.047 461.38C834.084 461.38 833.185 461.215 832.349 460.886C831.513 460.531 830.841 459.987 830.335 459.252C829.853 458.492 829.6 457.504 829.575 456.288V444.622H825.775V442H829.575V437.44L832.615 436.604V442H839.531ZM851.993 461.38C850.194 461.38 848.585 460.987 847.167 460.202C845.773 459.417 844.684 458.289 843.899 456.82C843.113 455.325 842.721 453.552 842.721 451.5C842.721 449.448 843.113 447.687 843.899 446.218C844.684 444.723 845.761 443.583 847.129 442.798C848.497 442.013 850.055 441.62 851.803 441.62C853.576 441.62 855.083 442 856.325 442.76C857.591 443.52 858.554 444.559 859.213 445.876C859.871 447.168 860.201 448.625 860.201 450.246C860.201 450.677 860.188 451.069 860.163 451.424C860.137 451.779 860.099 452.095 860.049 452.374H845.723C845.875 454.375 846.495 455.933 847.585 457.048C848.674 458.163 850.118 458.72 851.917 458.72C853.31 458.72 854.437 458.454 855.299 457.922C856.185 457.39 856.895 456.668 857.427 455.756L859.821 457.162C859.111 458.454 858.085 459.48 856.743 460.24C855.425 461 853.842 461.38 851.993 461.38ZM851.727 444.28C850.131 444.28 848.813 444.761 847.775 445.724C846.761 446.661 846.115 447.979 845.837 449.676H857.161C857.085 447.953 856.553 446.623 855.565 445.686C854.577 444.749 853.297 444.28 851.727 444.28ZM867.502 456.44C868.389 456.44 869.086 456.782 869.592 457.466C870.099 458.15 870.352 459.037 870.352 460.126C870.352 461.393 870.023 462.609 869.364 463.774C868.706 464.939 867.654 465.864 866.21 466.548L864.614 465.066C865.653 464.711 866.489 464.167 867.122 463.432C867.756 462.723 868.161 461.975 868.338 461.19L868.186 461.114C868.085 461.19 867.958 461.253 867.806 461.304C867.654 461.355 867.426 461.38 867.122 461.38C866.666 461.38 866.198 461.19 865.716 460.81C865.26 460.405 865.032 459.797 865.032 458.986C865.032 458.302 865.273 457.707 865.754 457.2C866.236 456.693 866.818 456.44 867.502 456.44ZM897.919 435.54C900.199 435.54 902.2 435.933 903.923 436.718C905.646 437.503 907.115 438.669 908.331 440.214L905.405 443.596C904.366 442.279 903.226 441.316 901.985 440.708C900.769 440.075 899.35 439.758 897.729 439.758C896.108 439.758 894.93 440.062 894.195 440.67C893.46 441.253 893.093 441.962 893.093 442.798C893.093 443.482 893.346 444.065 893.853 444.546C894.385 445.002 895.31 445.382 896.627 445.686L901.301 446.75C903.758 447.307 905.532 448.143 906.621 449.258C907.71 450.347 908.255 451.766 908.255 453.514C908.255 455.161 907.824 456.579 906.963 457.77C906.102 458.935 904.898 459.835 903.353 460.468C901.808 461.076 900.034 461.38 898.033 461.38C895.424 461.38 893.131 460.924 891.155 460.012C889.179 459.1 887.621 457.922 886.481 456.478L889.445 452.944C890.306 454.16 891.484 455.173 892.979 455.984C894.499 456.769 896.184 457.162 898.033 457.162C899.578 457.162 900.769 456.909 901.605 456.402C902.441 455.87 902.859 455.123 902.859 454.16C902.859 453.527 902.631 452.969 902.175 452.488C901.744 452.007 900.934 451.639 899.743 451.386L894.651 450.246C892.422 449.765 890.699 448.979 889.483 447.89C888.267 446.801 887.659 445.319 887.659 443.444C887.659 441.949 888.064 440.607 888.875 439.416C889.686 438.225 890.851 437.288 892.371 436.604C893.916 435.895 895.766 435.54 897.919 435.54ZM923.292 448.878C923.292 447.789 922.975 446.94 922.342 446.332C921.734 445.724 920.923 445.42 919.91 445.42C918.972 445.42 918.149 445.661 917.44 446.142C916.73 446.623 916.211 447.421 915.882 448.536L911.436 447.168C911.866 445.496 912.804 444.153 914.248 443.14C915.717 442.127 917.68 441.62 920.138 441.62C922.62 441.62 924.622 442.215 926.142 443.406C927.687 444.571 928.46 446.319 928.46 448.65V456.364C928.46 457.327 928.916 457.808 929.828 457.808C930.258 457.808 930.664 457.745 931.044 457.618L930.74 460.848C930.081 461.177 929.258 461.342 928.27 461.342C927.18 461.342 926.23 461.114 925.42 460.658C924.634 460.202 924.102 459.518 923.824 458.606C923.216 459.518 922.342 460.215 921.202 460.696C920.087 461.152 918.934 461.38 917.744 461.38C915.818 461.38 914.286 460.949 913.146 460.088C912.031 459.201 911.474 457.922 911.474 456.25C911.474 454.831 911.93 453.679 912.842 452.792C913.754 451.88 915.058 451.259 916.756 450.93L923.292 449.6V448.878ZM916.68 455.756C916.68 456.389 916.908 456.871 917.364 457.2C917.845 457.529 918.415 457.694 919.074 457.694C919.808 457.694 920.492 457.58 921.126 457.352C921.759 457.124 922.278 456.744 922.684 456.212C923.089 455.655 923.292 454.92 923.292 454.008V452.83L919.302 453.628C918.44 453.805 917.782 454.046 917.326 454.35C916.895 454.629 916.68 455.097 916.68 455.756ZM939.412 433.678V455.148C939.412 456.035 939.564 456.655 939.868 457.01C940.172 457.365 940.679 457.542 941.388 457.542C941.819 457.542 942.173 457.517 942.452 457.466C942.731 457.415 943.085 457.314 943.516 457.162L943.06 460.582C942.629 460.835 942.085 461.025 941.426 461.152C940.793 461.304 940.159 461.38 939.526 461.38C937.677 461.38 936.321 460.937 935.46 460.05C934.624 459.138 934.206 457.694 934.206 455.718V433.678H939.412ZM955.233 461.38C952.243 461.38 949.849 460.519 948.051 458.796C946.252 457.048 945.353 454.616 945.353 451.5C945.353 449.423 945.758 447.649 946.569 446.18C947.379 444.711 948.507 443.583 949.951 442.798C951.42 442.013 953.092 441.62 954.967 441.62C956.892 441.62 958.526 442.013 959.869 442.798C961.211 443.558 962.237 444.609 962.947 445.952C963.656 447.269 964.011 448.777 964.011 450.474C964.011 450.981 963.998 451.462 963.973 451.918C963.947 452.374 963.909 452.779 963.859 453.134H950.445C950.647 454.603 951.154 455.705 951.965 456.44C952.801 457.149 953.877 457.504 955.195 457.504C956.309 457.504 957.209 457.289 957.893 456.858C958.577 456.427 959.109 455.832 959.489 455.072L963.631 456.668C963.023 458.163 961.959 459.328 960.439 460.164C958.919 460.975 957.183 461.38 955.233 461.38ZM954.929 445.458C952.471 445.458 950.989 446.813 950.483 449.524H959.033C958.881 448.207 958.45 447.206 957.741 446.522C957.057 445.813 956.119 445.458 954.929 445.458ZM976.023 461.38C974.097 461.38 972.337 461.038 970.741 460.354C969.17 459.67 967.891 458.707 966.903 457.466L969.905 454.426C970.513 455.338 971.323 456.085 972.337 456.668C973.35 457.251 974.553 457.542 975.947 457.542C976.935 457.542 977.72 457.403 978.303 457.124C978.911 456.82 979.215 456.351 979.215 455.718C979.215 455.313 979.075 454.971 978.797 454.692C978.518 454.388 977.961 454.147 977.125 453.97L973.781 453.286C971.577 452.83 970.006 452.146 969.069 451.234C968.157 450.297 967.701 449.093 967.701 447.624C967.701 446.585 968.005 445.61 968.613 444.698C969.246 443.786 970.183 443.051 971.425 442.494C972.666 441.911 974.211 441.62 976.061 441.62C979.911 441.62 982.673 442.798 984.345 445.154L981.229 448.194C980.671 447.307 979.937 446.636 979.025 446.18C978.138 445.699 977.201 445.458 976.213 445.458C973.983 445.458 972.869 446.079 972.869 447.32C972.869 447.725 973.046 448.08 973.401 448.384C973.755 448.663 974.401 448.903 975.339 449.106L979.215 449.904C981.089 450.284 982.432 450.93 983.243 451.842C984.053 452.729 984.459 453.805 984.459 455.072C984.459 456.896 983.724 458.403 982.255 459.594C980.811 460.785 978.733 461.38 976.023 461.38ZM1006 456.782H1019.23V461H1000.76V435.92H1006V456.782ZM1031.53 461.38C1028.54 461.38 1026.15 460.519 1024.35 458.796C1022.55 457.048 1021.65 454.616 1021.65 451.5C1021.65 449.423 1022.05 447.649 1022.87 446.18C1023.68 444.711 1024.8 443.583 1026.25 442.798C1027.72 442.013 1029.39 441.62 1031.26 441.62C1033.19 441.62 1034.82 442.013 1036.17 442.798C1037.51 443.558 1038.53 444.609 1039.24 445.952C1039.95 447.269 1040.31 448.777 1040.31 450.474C1040.31 450.981 1040.29 451.462 1040.27 451.918C1040.24 452.374 1040.21 452.779 1040.16 453.134H1026.74C1026.94 454.603 1027.45 455.705 1028.26 456.44C1029.1 457.149 1030.17 457.504 1031.49 457.504C1032.61 457.504 1033.51 457.289 1034.19 456.858C1034.87 456.427 1035.41 455.832 1035.79 455.072L1039.93 456.668C1039.32 458.163 1038.26 459.328 1036.74 460.164C1035.22 460.975 1033.48 461.38 1031.53 461.38ZM1031.23 445.458C1028.77 445.458 1027.29 446.813 1026.78 449.524H1035.33C1035.18 448.207 1034.75 447.206 1034.04 446.522C1033.35 445.813 1032.42 445.458 1031.23 445.458ZM1055.55 448.878C1055.55 447.789 1055.23 446.94 1054.6 446.332C1053.99 445.724 1053.18 445.42 1052.17 445.42C1051.23 445.42 1050.41 445.661 1049.7 446.142C1048.99 446.623 1048.47 447.421 1048.14 448.536L1043.69 447.168C1044.12 445.496 1045.06 444.153 1046.51 443.14C1047.97 442.127 1049.94 441.62 1052.4 441.62C1054.88 441.62 1056.88 442.215 1058.4 443.406C1059.94 444.571 1060.72 446.319 1060.72 448.65V456.364C1060.72 457.327 1061.17 457.808 1062.09 457.808C1062.52 457.808 1062.92 457.745 1063.3 457.618L1063 460.848C1062.34 461.177 1061.52 461.342 1060.53 461.342C1059.44 461.342 1058.49 461.114 1057.68 460.658C1056.89 460.202 1056.36 459.518 1056.08 458.606C1055.47 459.518 1054.6 460.215 1053.46 460.696C1052.34 461.152 1051.19 461.38 1050 461.38C1048.08 461.38 1046.54 460.949 1045.4 460.088C1044.29 459.201 1043.73 457.922 1043.73 456.25C1043.73 454.831 1044.19 453.679 1045.1 452.792C1046.01 451.88 1047.32 451.259 1049.01 450.93L1055.55 449.6V448.878ZM1048.94 455.756C1048.94 456.389 1049.17 456.871 1049.62 457.2C1050.1 457.529 1050.67 457.694 1051.33 457.694C1052.07 457.694 1052.75 457.58 1053.38 457.352C1054.02 457.124 1054.54 456.744 1054.94 456.212C1055.35 455.655 1055.55 454.92 1055.55 454.008V452.83L1051.56 453.628C1050.7 453.805 1050.04 454.046 1049.58 454.35C1049.15 454.629 1048.94 455.097 1048.94 455.756ZM1073.65 461.38C1072.08 461.38 1070.67 460.987 1069.43 460.202C1068.21 459.417 1067.25 458.302 1066.54 456.858C1065.86 455.389 1065.52 453.615 1065.52 451.538C1065.52 449.435 1065.88 447.649 1066.62 446.18C1067.35 444.685 1068.34 443.558 1069.58 442.798C1070.85 442.013 1072.27 441.62 1073.84 441.62C1075.21 441.62 1076.38 441.949 1077.37 442.608C1078.36 443.267 1079.11 444.141 1079.61 445.23V433.678H1084.82V461H1080.15L1079.92 457.314C1079.39 458.581 1078.56 459.581 1077.45 460.316C1076.33 461.025 1075.07 461.38 1073.65 461.38ZM1075.17 457.39C1076.51 457.39 1077.59 456.871 1078.4 455.832C1079.21 454.768 1079.61 453.273 1079.61 451.348C1079.61 449.524 1079.21 448.118 1078.4 447.13C1077.61 446.117 1076.56 445.61 1075.24 445.61C1073.82 445.61 1072.71 446.117 1071.9 447.13C1071.11 448.118 1070.72 449.575 1070.72 451.5C1070.72 453.425 1071.11 454.895 1071.9 455.908C1072.68 456.896 1073.77 457.39 1075.17 457.39Z" fill="#111111"/>
<mask id="mask6" mask-type="alpha" maskUnits="userSpaceOnUse" x="769" y="145" width="240" height="240">
<path d="M889 385C955.274 385 1009 331.274 1009 265C1009 198.726 955.274 145 889 145C822.726 145 769 198.726 769 265C769 331.274 822.726 385 889 385Z" fill="white"/>
</mask>
<g mask="url(#mask6)">
<path d="M889 385C955.274 385 1009 331.274 1009 265C1009 198.726 955.274 145 889 145C822.726 145 769 198.726 769 265C769 331.274 822.726 385 889 385Z" fill="#E6E6E6"/>
<path d="M1009 145H769V385H1009V145Z" fill="#CBECEA"/>
</g>
<mask id="mask7" mask-type="alpha" maskUnits="userSpaceOnUse" x="757" y="105" width="264" height="280">
<path d="M769 265C769 331.274 822.726 385 889 385C955.274 385 1009 331.274 1009 265H1021V105H757V265H769Z" fill="white"/>
</mask>
<g mask="url(#mask7)">
<mask id="mask8" mask-type="alpha" maskUnits="userSpaceOnUse" x="789" y="141" width="200" height="244">
<path d="M913 285.611V304H917C956.765 304 989 336.235 989 376V385H789V376C789 336.235 821.235 304 861 304H865V285.611C847.763 277.422 835.372 260.687 833.305 240.881C827.48 240.058 823 235.052 823 229V215C823 209.054 827.325 204.118 833 203.166V197C833 166.072 858.072 141 889 141C919.928 141 945 166.072 945 197V203.166C950.675 204.118 955 209.054 955 215V229C955 235.052 950.52 240.058 944.695 240.881C942.628 260.687 930.237 277.422 913 285.611Z" fill="white"/>
</mask>
<g mask="url(#mask8)">
<path d="M913 285.611V304H917C956.765 304 989 336.235 989 376V385H789V376C789 336.235 821.235 304 861 304H865V285.611C847.763 277.422 835.372 260.687 833.305 240.881C827.48 240.058 823 235.052 823 229V215C823 209.054 827.325 204.118 833 203.166V197C833 166.072 858.072 141 889 141C919.928 141 945 166.072 945 197V203.166C950.675 204.118 955 209.054 955 215V229C955 235.052 950.52 240.058 944.695 240.881C942.628 260.687 930.237 277.422 913 285.611Z" fill="#D0C6AC"/>
<path d="M1053 141H789V421H1053V141Z" fill="#614335"/>
<path fill-rule="evenodd" clip-rule="evenodd" d="M945 220V243C945 273.928 919.928 299 889 299C858.072 299 833 273.928 833 243V220V235C833 265.928 858.072 291 889 291C919.928 291 945 265.928 945 235V220Z" fill="black" fill-opacity="0.1"/>
</g>
<mask id="mask9" mask-type="alpha" maskUnits="userSpaceOnUse" x="789" y="307" width="200" height="78">
<path fill-rule="evenodd" clip-rule="evenodd" d="M938.544 307.33C967.784 316.488 989 343.792 989 376.052V385H789V376.052C789 343.397 810.739 315.82 840.534 307.002C840.182 308.42 840 309.871 840 311.348C840 327.629 862.162 340.828 889.5 340.828C916.838 340.828 939 327.629 939 311.348C939 309.985 938.845 308.644 938.544 307.33Z" fill="white"/>
</mask>
<g mask="url(#mask9)">
<path fill-rule="evenodd" clip-rule="evenodd" d="M938.544 307.33C967.784 316.488 989 343.792 989 376.052V385H789V376.052C789 343.397 810.739 315.82 840.534 307.002C840.182 308.42 840 309.871 840 311.348C840 327.629 862.162 340.828 889.5 340.828C916.838 340.828 939 327.629 939 311.348C939 309.985 938.845 308.644 938.544 307.33Z" fill="#E6E6E6"/>
<path d="M1021 275H757V385H1021V275Z" fill="#FFDEB5"/>
</g>
<path d="M875 255C875 260.372 881.158 264 889 264C896.842 264 903 260.372 903 255C903 253.895 902.05 253 901 253C899.707 253 899.13 253.905 899 255C897.758 257.938 894.683 259.716 889 260C883.317 259.716 880.242 257.938 879 255C878.87 253.905 878.293 253 877 253C875.95 253 875 253.895 875 255Z" fill="black" fill-opacity="0.6"/>
<path fill-rule="evenodd" clip-rule="evenodd" d="M877 235C877 239.418 882.373 243 889 243C895.627 243 901 239.418 901 235" fill="black" fill-opacity="0.16"/>
<path fill-rule="evenodd" clip-rule="evenodd" d="M849.16 217.447C851.007 213.649 855.164 211 859.998 211C864.814 211 868.959 213.63 870.815 217.407C871.367 218.529 870.582 219.447 869.791 218.767C867.34 216.66 863.859 215.344 859.998 215.344C856.257 215.344 852.874 216.579 850.438 218.572C849.547 219.3 848.62 218.558 849.16 217.447Z" fill="black" fill-opacity="0.6"/>
<path fill-rule="evenodd" clip-rule="evenodd" d="M907.16 217.447C909.007 213.649 913.164 211 917.998 211C922.814 211 926.959 213.63 928.815 217.407C929.367 218.529 928.582 219.447 927.791 218.767C925.34 216.66 921.859 215.344 917.998 215.344C914.257 215.344 910.874 216.579 908.438 218.572C907.547 219.3 906.62 218.558 907.16 217.447Z" fill="black" fill-opacity="0.6"/>
<path fill-rule="evenodd" clip-rule="evenodd" d="M855.766 188.578L856.677 188.176C861.919 186.095 869.865 186.967 874.723 189.299C875.29 189.571 874.902 190.452 874.321 190.407C859.402 189.256 849.358 198.553 845.946 204.847C845.845 205.034 845.539 205.055 845.464 204.881C843.156 199.562 849.913 190.896 855.766 188.578Z" fill="black" fill-opacity="0.6"/>
<path fill-rule="evenodd" clip-rule="evenodd" d="M922.234 188.578L921.323 188.176C916.081 186.095 908.135 186.967 903.277 189.299C902.71 189.571 903.098 190.452 903.679 190.407C918.598 189.256 928.642 198.553 932.054 204.847C932.155 205.034 932.461 205.055 932.536 204.881C934.844 199.562 928.087 190.896 922.234 188.578Z" fill="black" fill-opacity="0.6"/>
<mask id="mask10" mask-type="alpha" maskUnits="userSpaceOnUse" x="757" y="105" width="264" height="280">
<path d="M1021 105H757V385H1021V105Z" fill="white"/>
</mask>
<g mask="url(#mask10)">
<path fill-rule="evenodd" clip-rule="evenodd" d="M823 214.778C832.038 213.717 844.922 194.331 850.369 174.335C861.486 176.072 874.905 177.087 889.354 177.087C903.513 177.087 916.683 176.112 927.668 174.438C933.13 194.391 945.978 213.707 955 214.777V194C955 171.116 943.353 150.952 925.664 139.112C925.136 141.595 924.785 144.335 924.624 147.297C914.285 145.893 902.228 145.087 889.354 145.087C876.19 145.087 863.882 145.929 853.39 147.393C853.232 144.392 852.878 141.618 852.343 139.107C834.65 150.946 823 171.113 823 194V214.778Z" fill="black" fill-opacity="0.16"/>
<mask id="mask11" mask-type="alpha" maskUnits="userSpaceOnUse" x="773" y="105" width="232" height="193">
<path fill-rule="evenodd" clip-rule="evenodd" d="M953.666 209.495C954.518 211.144 955 213.016 955 215V228C955 234.019 950.569 239.002 944.791 239.867C943.048 260.115 930.531 277.283 913 285.611V295.054C916.832 296.95 921.059 298 925.5 298C933.121 298 940.111 294.907 945.559 289.758C947.02 289.918 948.502 290 950 290C968.39 290 984.26 277.683 991.622 259.884C997.9 254.814 1002 246.454 1002 237C1002 235.215 1001.85 233.469 1001.57 231.777C1003.79 225.339 1005 218.331 1005 211C1005 198.134 1001.26 186.264 994.954 176.725C994.985 176.155 995 175.579 995 175C995 164.043 989.493 154.557 981.471 149.957C974.16 132.369 958.741 119.991 940.697 119.057C936.274 114.075 930.201 111 923.5 111C922.549 111 921.611 111.062 920.688 111.182C910.91 107.196 900.211 105 889 105C877.789 105 867.09 107.196 857.312 111.182C856.389 111.062 855.451 111 854.5 111C847.799 111 841.726 114.075 837.303 119.057C819.259 119.991 803.84 132.369 796.529 149.957C788.507 154.557 783 164.043 783 175C783 175.579 783.015 176.155 783.046 176.725C776.739 186.264 773 198.134 773 211C773 218.331 774.214 225.339 776.426 231.777C776.146 233.469 776 235.215 776 237C776 246.454 780.1 254.814 786.378 259.884C793.74 277.683 809.61 290 828 290C829.498 290 830.98 289.918 832.441 289.758C837.889 294.907 844.879 298 852.5 298C856.941 298 861.168 296.95 865 295.054V285.611C847.469 277.283 834.952 260.115 833.209 239.867C827.431 239.002 823 234.019 823 228V215C823 213.017 823.481 211.146 824.333 209.498C827.035 208.696 830.01 206.445 832.991 203.168C832.994 203.167 832.997 203.166 833 203.166V203.157C839.866 195.601 846.755 182.602 850.369 169.335C861.486 171.072 874.905 172.087 889.354 172.087C903.513 172.087 916.683 171.112 927.668 169.438C931.288 182.664 938.154 195.61 945 203.148V203.166C945.007 203.167 945.013 203.168 945.02 203.169C947.996 206.441 950.967 208.691 953.666 209.495Z" fill="white"/>
</mask>
<g mask="url(#mask11)">
<path fill-rule="evenodd" clip-rule="evenodd" d="M953.666 209.495C954.518 211.144 955 213.016 955 215V228C955 234.019 950.569 239.002 944.791 239.867C943.048 260.115 930.531 277.283 913 285.611V295.054C916.832 296.95 921.059 298 925.5 298C933.121 298 940.111 294.907 945.559 289.758C947.02 289.918 948.502 290 950 290C968.39 290 984.26 277.683 991.622 259.884C997.9 254.814 1002 246.454 1002 237C1002 235.215 1001.85 233.469 1001.57 231.777C1003.79 225.339 1005 218.331 1005 211C1005 198.134 1001.26 186.264 994.954 176.725C994.985 176.155 995 175.579 995 175C995 164.043 989.493 154.557 981.471 149.957C974.16 132.369 958.741 119.991 940.697 119.057C936.274 114.075 930.201 111 923.5 111C922.549 111 921.611 111.062 920.688 111.182C910.91 107.196 900.211 105 889 105C877.789 105 867.09 107.196 857.312 111.182C856.389 111.062 855.451 111 854.5 111C847.799 111 841.726 114.075 837.303 119.057C819.259 119.991 803.84 132.369 796.529 149.957C788.507 154.557 783 164.043 783 175C783 175.579 783.015 176.155 783.046 176.725C776.739 186.264 773 198.134 773 211C773 218.331 774.214 225.339 776.426 231.777C776.146 233.469 776 235.215 776 237C776 246.454 780.1 254.814 786.378 259.884C793.74 277.683 809.61 290 828 290C829.498 290 830.98 289.918 832.441 289.758C837.889 294.907 844.879 298 852.5 298C856.941 298 861.168 296.95 865 295.054V285.611C847.469 277.283 834.952 260.115 833.209 239.867C827.431 239.002 823 234.019 823 228V215C823 213.017 823.481 211.146 824.333 209.498C827.035 208.696 830.01 206.445 832.991 203.168C832.994 203.167 832.997 203.166 833 203.166V203.157C839.866 195.601 846.755 182.602 850.369 169.335C861.486 171.072 874.905 172.087 889.354 172.087C903.513 172.087 916.683 171.112 927.668 169.438C931.288 182.664 938.154 195.61 945 203.148V203.166C945.007 203.167 945.013 203.168 945.02 203.169C947.996 206.441 950.967 208.691 953.666 209.495Z" fill="#314756"/>
<path d="M1037 105H773V385H1037V105Z" fill="#2C1B18"/>
</g>
</g>
</g>
<rect x="1313" y="502" width="231" height="77" rx="4" fill="#EDF5FD"/>
<path d="M1340.27 554V528.92H1359.08V533.138H1345.51V539.37H1356.19V543.398H1345.51V549.782H1359.61V554H1340.27ZM1363.78 554V535H1368.46L1368.65 538.42C1369.28 537.153 1370.14 536.203 1371.23 535.57C1372.35 534.937 1373.57 534.62 1374.92 534.62C1376.28 534.62 1377.51 534.937 1378.6 535.57C1379.72 536.178 1380.55 537.115 1381.11 538.382C1381.69 537.115 1382.59 536.178 1383.81 535.57C1385.02 534.937 1386.28 534.62 1387.57 534.62C1388.81 534.62 1389.94 534.873 1390.95 535.38C1391.99 535.887 1392.81 536.647 1393.42 537.66C1394.03 538.673 1394.33 539.965 1394.33 541.536V554H1389.13V542.562C1389.13 541.169 1388.81 540.181 1388.18 539.598C1387.57 539.015 1386.8 538.724 1385.86 538.724C1384.7 538.724 1383.71 539.155 1382.9 540.016C1382.09 540.852 1381.68 542.106 1381.68 543.778V554H1376.47V542.562C1376.47 541.169 1376.16 540.181 1375.52 539.598C1374.92 539.015 1374.13 538.724 1373.17 538.724C1372.51 538.724 1371.85 538.901 1371.19 539.256C1370.56 539.611 1370.03 540.168 1369.6 540.928C1369.19 541.688 1368.99 542.689 1368.99 543.93V554H1363.78ZM1399.7 561.98V535H1404.38L1404.61 538.724C1405.14 537.508 1405.95 536.52 1407.04 535.76C1408.15 535 1409.46 534.62 1410.95 534.62C1412.5 534.62 1413.88 535.013 1415.09 535.798C1416.31 536.583 1417.26 537.711 1417.94 539.18C1418.65 540.624 1419.01 542.385 1419.01 544.462C1419.01 546.539 1418.65 548.325 1417.94 549.82C1417.24 551.289 1416.26 552.417 1415.02 553.202C1413.8 553.987 1412.41 554.38 1410.84 554.38C1409.45 554.38 1408.24 554.051 1407.23 553.392C1406.24 552.733 1405.47 551.859 1404.91 550.77V561.98H1399.7ZM1409.32 550.39C1410.71 550.39 1411.8 549.896 1412.59 548.908C1413.4 547.895 1413.8 546.425 1413.8 544.5C1413.8 542.575 1413.41 541.118 1412.62 540.13C1411.86 539.117 1410.79 538.61 1409.39 538.61C1408.05 538.61 1406.96 539.129 1406.13 540.168C1405.32 541.207 1404.91 542.651 1404.91 544.5C1404.91 546.324 1405.3 547.768 1406.09 548.832C1406.9 549.871 1407.98 550.39 1409.32 550.39ZM1428.66 526.678V548.148C1428.66 549.035 1428.81 549.655 1429.11 550.01C1429.42 550.365 1429.93 550.542 1430.63 550.542C1431.07 550.542 1431.42 550.517 1431.7 550.466C1431.98 550.415 1432.33 550.314 1432.76 550.162L1432.31 553.582C1431.88 553.835 1431.33 554.025 1430.67 554.152C1430.04 554.304 1429.41 554.38 1428.77 554.38C1426.92 554.38 1425.57 553.937 1424.71 553.05C1423.87 552.138 1423.45 550.694 1423.45 548.718V526.678H1428.66ZM1444.33 534.62C1446.23 534.62 1447.91 535.013 1449.38 535.798C1450.85 536.583 1451.99 537.711 1452.8 539.18C1453.64 540.649 1454.06 542.423 1454.06 544.5C1454.06 546.577 1453.64 548.351 1452.8 549.82C1451.99 551.289 1450.85 552.417 1449.38 553.202C1447.91 553.987 1446.23 554.38 1444.33 554.38C1442.4 554.38 1440.71 553.987 1439.24 553.202C1437.79 552.417 1436.65 551.289 1435.82 549.82C1435.01 548.351 1434.6 546.577 1434.6 544.5C1434.6 542.423 1435.01 540.649 1435.82 539.18C1436.65 537.711 1437.79 536.583 1439.24 535.798C1440.71 535.013 1442.4 534.62 1444.33 534.62ZM1444.33 538.496C1442.91 538.496 1441.79 539.003 1440.98 540.016C1440.2 541.004 1439.81 542.499 1439.81 544.5C1439.81 546.501 1440.2 548.009 1440.98 549.022C1441.79 550.01 1442.91 550.504 1444.33 550.504C1445.72 550.504 1446.81 550.01 1447.6 549.022C1448.41 548.009 1448.81 546.501 1448.81 544.5C1448.81 542.499 1448.41 541.004 1447.6 540.016C1446.81 539.003 1445.72 538.496 1444.33 538.496ZM1475.38 535L1467.71 555.178C1467.1 556.901 1466.41 558.269 1465.65 559.282C1464.92 560.321 1464.06 561.055 1463.07 561.486C1462.11 561.942 1460.95 562.17 1459.61 562.17C1458.62 562.17 1457.71 562.056 1456.88 561.828C1456.06 561.6 1455.36 561.283 1454.75 560.878L1455.85 557.116C1456.74 557.825 1457.85 558.18 1459.19 558.18C1459.93 558.18 1460.55 558.028 1461.06 557.724C1461.56 557.42 1461.99 556.812 1462.35 555.9L1462.99 554.266L1460.9 549.326L1455.09 535H1460.87L1464.48 546.4L1465.46 550.2L1466.64 546.172L1470.1 535H1475.38ZM1486.86 554.38C1483.87 554.38 1481.48 553.519 1479.68 551.796C1477.88 550.048 1476.98 547.616 1476.98 544.5C1476.98 542.423 1477.38 540.649 1478.19 539.18C1479.01 537.711 1480.13 536.583 1481.58 535.798C1483.05 535.013 1484.72 534.62 1486.59 534.62C1488.52 534.62 1490.15 535.013 1491.49 535.798C1492.84 536.558 1493.86 537.609 1494.57 538.952C1495.28 540.269 1495.64 541.777 1495.64 543.474C1495.64 543.981 1495.62 544.462 1495.6 544.918C1495.57 545.374 1495.54 545.779 1495.48 546.134H1482.07C1482.27 547.603 1482.78 548.705 1483.59 549.44C1484.43 550.149 1485.5 550.504 1486.82 550.504C1487.94 550.504 1488.83 550.289 1489.52 549.858C1490.2 549.427 1490.73 548.832 1491.11 548.072L1495.26 549.668C1494.65 551.163 1493.58 552.328 1492.06 553.164C1490.54 553.975 1488.81 554.38 1486.86 554.38ZM1486.55 538.458C1484.1 538.458 1482.62 539.813 1482.11 542.524H1490.66C1490.51 541.207 1490.08 540.206 1489.37 539.522C1488.68 538.813 1487.75 538.458 1486.55 538.458ZM1508.86 554.38C1505.88 554.38 1503.48 553.519 1501.68 551.796C1499.88 550.048 1498.98 547.616 1498.98 544.5C1498.98 542.423 1499.39 540.649 1500.2 539.18C1501.01 537.711 1502.14 536.583 1503.58 535.798C1505.05 535.013 1506.72 534.62 1508.6 534.62C1510.52 534.62 1512.16 535.013 1513.5 535.798C1514.84 536.558 1515.87 537.609 1516.58 538.952C1517.29 540.269 1517.64 541.777 1517.64 543.474C1517.64 543.981 1517.63 544.462 1517.6 544.918C1517.58 545.374 1517.54 545.779 1517.49 546.134H1504.08C1504.28 547.603 1504.79 548.705 1505.6 549.44C1506.43 550.149 1507.51 550.504 1508.83 550.504C1509.94 550.504 1510.84 550.289 1511.52 549.858C1512.21 549.427 1512.74 548.832 1513.12 548.072L1517.26 549.668C1516.65 551.163 1515.59 552.328 1514.07 553.164C1512.55 553.975 1510.82 554.38 1508.86 554.38ZM1508.56 538.458C1506.1 538.458 1504.62 539.813 1504.11 542.524H1512.66C1512.51 541.207 1512.08 540.206 1511.37 539.522C1510.69 538.813 1509.75 538.458 1508.56 538.458Z" fill="#1E8CED"/>
<path d="M1249.38 461L1259.14 435.92H1262.75L1272.48 461H1269.25L1266.59 454.046H1255.23L1252.57 461H1249.38ZM1259.75 442.19L1256.33 451.196H1265.49L1262.11 442.304L1260.93 438.808H1260.85L1259.75 442.19ZM1288.1 448.726C1288.1 447.307 1287.72 446.218 1286.96 445.458C1286.2 444.673 1285.13 444.28 1283.73 444.28C1282.42 444.28 1281.3 444.571 1280.39 445.154C1279.48 445.711 1278.81 446.623 1278.38 447.89L1275.91 446.37C1276.41 444.951 1277.35 443.811 1278.72 442.95C1280.09 442.063 1281.78 441.62 1283.81 441.62C1285.18 441.62 1286.42 441.861 1287.53 442.342C1288.65 442.798 1289.52 443.507 1290.16 444.47C1290.81 445.407 1291.14 446.623 1291.14 448.118V457.314C1291.14 458.226 1291.62 458.682 1292.59 458.682C1293.07 458.682 1293.54 458.619 1293.99 458.492L1293.84 460.886C1293.33 461.139 1292.68 461.266 1291.87 461.266C1290.93 461.266 1290.12 461.038 1289.43 460.582C1288.77 460.126 1288.34 459.429 1288.14 458.492C1287.48 459.48 1286.58 460.215 1285.44 460.696C1284.3 461.152 1283.18 461.38 1282.06 461.38C1280.95 461.38 1279.91 461.19 1278.95 460.81C1277.98 460.43 1277.21 459.86 1276.63 459.1C1276.07 458.315 1275.79 457.352 1275.79 456.212C1275.79 454.793 1276.26 453.628 1277.2 452.716C1278.16 451.779 1279.49 451.145 1281.19 450.816L1288.1 449.448V448.726ZM1278.91 456.06C1278.91 456.845 1279.21 457.491 1279.82 457.998C1280.45 458.479 1281.34 458.72 1282.48 458.72C1283.47 458.72 1284.38 458.555 1285.22 458.226C1286.08 457.871 1286.77 457.352 1287.31 456.668C1287.84 455.959 1288.1 455.059 1288.1 453.97V451.956L1282.59 453.096C1281.35 453.349 1280.43 453.704 1279.82 454.16C1279.21 454.616 1278.91 455.249 1278.91 456.06ZM1298.53 461V442H1301L1301.42 445.116C1302.48 442.785 1304.51 441.62 1307.5 441.62C1307.83 441.62 1308.18 441.645 1308.56 441.696C1308.97 441.747 1309.31 441.848 1309.59 442L1309.06 444.774C1308.78 444.673 1308.47 444.597 1308.15 444.546C1307.82 444.495 1307.35 444.47 1306.74 444.47C1305.95 444.47 1305.16 444.698 1304.35 445.154C1303.56 445.61 1302.9 446.307 1302.37 447.244C1301.84 448.156 1301.57 449.321 1301.57 450.74V461H1298.53ZM1320.92 461.38C1319.7 461.38 1318.55 461.152 1317.46 460.696C1316.4 460.24 1315.52 459.505 1314.84 458.492C1314.18 457.453 1313.85 456.111 1313.85 454.464V442H1316.89V453.666C1316.89 455.591 1317.31 456.921 1318.15 457.656C1318.98 458.365 1320.16 458.72 1321.68 458.72C1322.64 458.72 1323.56 458.505 1324.42 458.074C1325.28 457.618 1325.99 456.921 1326.54 455.984C1327.1 455.047 1327.38 453.831 1327.38 452.336V442H1330.42V461H1327.76L1327.57 458.112C1326.91 459.252 1326.01 460.088 1324.87 460.62C1323.76 461.127 1322.44 461.38 1320.92 461.38ZM1344.34 461.38C1342.49 461.38 1340.78 460.987 1339.21 460.202C1337.66 459.417 1336.47 458.302 1335.63 456.858L1338.22 454.996C1338.78 456.161 1339.59 457.073 1340.65 457.732C1341.74 458.391 1343.04 458.72 1344.56 458.72C1345.91 458.72 1346.96 458.467 1347.72 457.96C1348.48 457.428 1348.86 456.744 1348.86 455.908C1348.86 455.376 1348.68 454.895 1348.33 454.464C1348 454.008 1347.35 453.679 1346.39 453.476L1341.83 452.526C1339.98 452.146 1338.65 451.513 1337.84 450.626C1337.05 449.739 1336.66 448.637 1336.66 447.32C1336.66 446.281 1336.95 445.331 1337.53 444.47C1338.14 443.609 1338.99 442.925 1340.08 442.418C1341.19 441.886 1342.5 441.62 1343.99 441.62C1345.87 441.62 1347.45 441.987 1348.74 442.722C1350.04 443.457 1351 444.495 1351.63 445.838L1349.09 447.51C1348.66 446.395 1347.96 445.585 1347 445.078C1346.03 444.546 1345.03 444.28 1343.99 444.28C1342.63 444.28 1341.56 444.559 1340.8 445.116C1340.04 445.673 1339.66 446.37 1339.66 447.206C1339.66 447.763 1339.85 448.283 1340.23 448.764C1340.61 449.22 1341.32 449.549 1342.36 449.752L1347.11 450.74C1348.88 451.095 1350.12 451.677 1350.83 452.488C1351.54 453.299 1351.9 454.287 1351.9 455.452C1351.9 457.251 1351.2 458.695 1349.81 459.784C1348.41 460.848 1346.59 461.38 1344.34 461.38ZM1357.53 461V433.26H1360.57V444.85C1361.23 443.71 1362.11 442.887 1363.2 442.38C1364.29 441.873 1365.48 441.62 1366.77 441.62C1368.14 441.62 1369.38 441.886 1370.49 442.418C1371.61 442.925 1372.49 443.71 1373.15 444.774C1373.84 445.838 1374.18 447.193 1374.18 448.84V461H1371.14V449.904C1371.14 447.801 1370.68 446.345 1369.77 445.534C1368.88 444.698 1367.78 444.28 1366.46 444.28C1365.55 444.28 1364.64 444.495 1363.73 444.926C1362.82 445.357 1362.06 446.066 1361.45 447.054C1360.87 448.017 1360.57 449.309 1360.57 450.93V461H1357.53ZM1382.58 456.44C1383.47 456.44 1384.17 456.782 1384.67 457.466C1385.18 458.15 1385.43 459.037 1385.43 460.126C1385.43 461.393 1385.1 462.609 1384.44 463.774C1383.79 464.939 1382.73 465.864 1381.29 466.548L1379.69 465.066C1380.73 464.711 1381.57 464.167 1382.2 463.432C1382.84 462.723 1383.24 461.975 1383.42 461.19L1383.27 461.114C1383.16 461.19 1383.04 461.253 1382.89 461.304C1382.73 461.355 1382.51 461.38 1382.2 461.38C1381.75 461.38 1381.28 461.19 1380.8 460.81C1380.34 460.405 1380.11 459.797 1380.11 458.986C1380.11 458.302 1380.35 457.707 1380.83 457.2C1381.32 456.693 1381.9 456.44 1382.58 456.44ZM1414.9 435.92C1417.71 435.92 1419.93 436.604 1421.55 437.972C1423.2 439.34 1424.02 441.177 1424.02 443.482C1424.02 445.331 1423.55 446.864 1422.61 448.08C1421.7 449.271 1420.41 450.107 1418.74 450.588L1425.5 461H1419.61L1413.72 451.386H1409.01V461H1403.84V435.92H1414.9ZM1414.29 447.396C1417.2 447.396 1418.66 446.18 1418.66 443.748C1418.66 441.316 1417.2 440.1 1414.29 440.1H1409.01V447.396H1414.29ZM1437.55 461.38C1434.56 461.38 1432.16 460.519 1430.36 458.796C1428.56 457.048 1427.67 454.616 1427.67 451.5C1427.67 449.423 1428.07 447.649 1428.88 446.18C1429.69 444.711 1430.82 443.583 1432.26 442.798C1433.73 442.013 1435.4 441.62 1437.28 441.62C1439.2 441.62 1440.84 442.013 1442.18 442.798C1443.52 443.558 1444.55 444.609 1445.26 445.952C1445.97 447.269 1446.32 448.777 1446.32 450.474C1446.32 450.981 1446.31 451.462 1446.29 451.918C1446.26 452.374 1446.22 452.779 1446.17 453.134H1432.76C1432.96 454.603 1433.47 455.705 1434.28 456.44C1435.11 457.149 1436.19 457.504 1437.51 457.504C1438.62 457.504 1439.52 457.289 1440.21 456.858C1440.89 456.427 1441.42 455.832 1441.8 455.072L1445.94 456.668C1445.34 458.163 1444.27 459.328 1442.75 460.164C1441.23 460.975 1439.5 461.38 1437.55 461.38ZM1437.24 445.458C1434.78 445.458 1433.3 446.813 1432.8 449.524H1441.35C1441.19 448.207 1440.76 447.206 1440.05 446.522C1439.37 445.813 1438.43 445.458 1437.24 445.458ZM1458.34 461.38C1456.41 461.38 1454.65 461.038 1453.05 460.354C1451.48 459.67 1450.2 458.707 1449.22 457.466L1452.22 454.426C1452.83 455.338 1453.64 456.085 1454.65 456.668C1455.66 457.251 1456.87 457.542 1458.26 457.542C1459.25 457.542 1460.03 457.403 1460.62 457.124C1461.22 456.82 1461.53 456.351 1461.53 455.718C1461.53 455.313 1461.39 454.971 1461.11 454.692C1460.83 454.388 1460.27 454.147 1459.44 453.97L1456.09 453.286C1453.89 452.83 1452.32 452.146 1451.38 451.234C1450.47 450.297 1450.01 449.093 1450.01 447.624C1450.01 446.585 1450.32 445.61 1450.93 444.698C1451.56 443.786 1452.5 443.051 1453.74 442.494C1454.98 441.911 1456.52 441.62 1458.37 441.62C1462.22 441.62 1464.99 442.798 1466.66 445.154L1463.54 448.194C1462.98 447.307 1462.25 446.636 1461.34 446.18C1460.45 445.699 1459.51 445.458 1458.53 445.458C1456.3 445.458 1455.18 446.079 1455.18 447.32C1455.18 447.725 1455.36 448.08 1455.71 448.384C1456.07 448.663 1456.71 448.903 1457.65 449.106L1461.53 449.904C1463.4 450.284 1464.74 450.93 1465.56 451.842C1466.37 452.729 1466.77 453.805 1466.77 455.072C1466.77 456.896 1466.04 458.403 1464.57 459.594C1463.12 460.785 1461.05 461.38 1458.34 461.38ZM1479.66 461.38C1476.67 461.38 1474.28 460.519 1472.48 458.796C1470.68 457.048 1469.78 454.616 1469.78 451.5C1469.78 449.423 1470.19 447.649 1471 446.18C1471.81 444.711 1472.94 443.583 1474.38 442.798C1475.85 442.013 1477.52 441.62 1479.4 441.62C1481.32 441.62 1482.96 442.013 1484.3 442.798C1485.64 443.558 1486.67 444.609 1487.38 445.952C1488.09 447.269 1488.44 448.777 1488.44 450.474C1488.44 450.981 1488.43 451.462 1488.4 451.918C1488.38 452.374 1488.34 452.779 1488.29 453.134H1474.88C1475.08 454.603 1475.59 455.705 1476.4 456.44C1477.23 457.149 1478.31 457.504 1479.63 457.504C1480.74 457.504 1481.64 457.289 1482.32 456.858C1483.01 456.427 1483.54 455.832 1483.92 455.072L1488.06 456.668C1487.45 458.163 1486.39 459.328 1484.87 460.164C1483.35 460.975 1481.61 461.38 1479.66 461.38ZM1479.36 445.458C1476.9 445.458 1475.42 446.813 1474.91 449.524H1483.46C1483.31 448.207 1482.88 447.206 1482.17 446.522C1481.49 445.813 1480.55 445.458 1479.36 445.458ZM1503.68 448.878C1503.68 447.789 1503.37 446.94 1502.73 446.332C1502.13 445.724 1501.32 445.42 1500.3 445.42C1499.36 445.42 1498.54 445.661 1497.83 446.142C1497.12 446.623 1496.6 447.421 1496.27 448.536L1491.83 447.168C1492.26 445.496 1493.2 444.153 1494.64 443.14C1496.11 442.127 1498.07 441.62 1500.53 441.62C1503.01 441.62 1505.01 442.215 1506.53 443.406C1508.08 444.571 1508.85 446.319 1508.85 448.65V456.364C1508.85 457.327 1509.31 457.808 1510.22 457.808C1510.65 457.808 1511.06 457.745 1511.44 457.618L1511.13 460.848C1510.47 461.177 1509.65 461.342 1508.66 461.342C1507.57 461.342 1506.62 461.114 1505.81 460.658C1505.03 460.202 1504.49 459.518 1504.22 458.606C1503.61 459.518 1502.73 460.215 1501.59 460.696C1500.48 461.152 1499.33 461.38 1498.14 461.38C1496.21 461.38 1494.68 460.949 1493.54 460.088C1492.42 459.201 1491.87 457.922 1491.87 456.25C1491.87 454.831 1492.32 453.679 1493.23 452.792C1494.15 451.88 1495.45 451.259 1497.15 450.93L1503.68 449.6V448.878ZM1497.07 455.756C1497.07 456.389 1497.3 456.871 1497.76 457.2C1498.24 457.529 1498.81 457.694 1499.47 457.694C1500.2 457.694 1500.88 457.58 1501.52 457.352C1502.15 457.124 1502.67 456.744 1503.08 456.212C1503.48 455.655 1503.68 454.92 1503.68 454.008V452.83L1499.69 453.628C1498.83 453.805 1498.17 454.046 1497.72 454.35C1497.29 454.629 1497.07 455.097 1497.07 455.756ZM1514.67 461V442H1519.2L1519.54 445.724C1520.02 444.432 1520.74 443.431 1521.7 442.722C1522.69 441.987 1523.93 441.62 1525.43 441.62C1526.32 441.62 1527 441.759 1527.48 442.038L1526.87 446.408C1526.62 446.332 1526.3 446.269 1525.92 446.218C1525.57 446.142 1525.1 446.104 1524.52 446.104C1523.73 446.104 1522.98 446.294 1522.27 446.674C1521.59 447.029 1521.02 447.586 1520.56 448.346C1520.11 449.081 1519.88 450.018 1519.88 451.158V461H1514.67ZM1538.96 441.62C1541.49 441.62 1543.46 442.165 1544.85 443.254C1546.27 444.343 1547.21 445.661 1547.66 447.206L1542.8 448.954C1542.29 446.649 1541.04 445.496 1539.04 445.496C1537.59 445.496 1536.47 446.003 1535.65 447.016C1534.87 448.029 1534.48 449.537 1534.48 451.538C1534.48 453.565 1534.88 455.072 1535.69 456.06C1536.53 457.023 1537.66 457.504 1539.07 457.504C1541.28 457.504 1542.6 456.377 1543.03 454.122L1547.74 455.642C1547.31 457.339 1546.35 458.72 1544.85 459.784C1543.38 460.848 1541.47 461.38 1539.11 461.38C1537.14 461.38 1535.4 460.987 1533.91 460.202C1532.44 459.417 1531.3 458.289 1530.49 456.82C1529.68 455.351 1529.27 453.577 1529.27 451.5C1529.27 449.423 1529.68 447.649 1530.49 446.18C1531.32 444.711 1532.46 443.583 1533.91 442.798C1535.38 442.013 1537.06 441.62 1538.96 441.62ZM1551.78 461V433.678H1556.99V445.23C1557.6 444.014 1558.43 443.115 1559.5 442.532C1560.56 441.924 1561.77 441.62 1563.11 441.62C1565.08 441.62 1566.72 442.203 1568.01 443.368C1569.3 444.508 1569.95 446.231 1569.95 448.536V461H1564.74V450.056C1564.74 448.409 1564.43 447.282 1563.79 446.674C1563.16 446.041 1562.35 445.724 1561.36 445.724C1560.63 445.724 1559.93 445.901 1559.27 446.256C1558.61 446.585 1558.07 447.143 1557.64 447.928C1557.21 448.688 1556.99 449.701 1556.99 450.968V461H1551.78ZM1584.13 461.38C1581.14 461.38 1578.74 460.519 1576.95 458.796C1575.15 457.048 1574.25 454.616 1574.25 451.5C1574.25 449.423 1574.65 447.649 1575.46 446.18C1576.27 444.711 1577.4 443.583 1578.85 442.798C1580.31 442.013 1581.99 441.62 1583.86 441.62C1585.79 441.62 1587.42 442.013 1588.76 442.798C1590.11 443.558 1591.13 444.609 1591.84 445.952C1592.55 447.269 1592.91 448.777 1592.91 450.474C1592.91 450.981 1592.89 451.462 1592.87 451.918C1592.84 452.374 1592.8 452.779 1592.75 453.134H1579.34C1579.54 454.603 1580.05 455.705 1580.86 456.44C1581.7 457.149 1582.77 457.504 1584.09 457.504C1585.2 457.504 1586.1 457.289 1586.79 456.858C1587.47 456.427 1588 455.832 1588.38 455.072L1592.53 456.668C1591.92 458.163 1590.85 459.328 1589.33 460.164C1587.81 460.975 1586.08 461.38 1584.13 461.38ZM1583.82 445.458C1581.37 445.458 1579.88 446.813 1579.38 449.524H1587.93C1587.78 448.207 1587.34 447.206 1586.64 446.522C1585.95 445.813 1585.01 445.458 1583.82 445.458ZM1597.32 461V442H1601.84L1602.18 445.724C1602.66 444.432 1603.38 443.431 1604.35 442.722C1605.34 441.987 1606.58 441.62 1608.07 441.62C1608.96 441.62 1609.64 441.759 1610.12 442.038L1609.52 446.408C1609.26 446.332 1608.95 446.269 1608.57 446.218C1608.21 446.142 1607.74 446.104 1607.16 446.104C1606.37 446.104 1605.63 446.294 1604.92 446.674C1604.23 447.029 1603.66 447.586 1603.21 448.346C1602.75 449.081 1602.52 450.018 1602.52 451.158V461H1597.32Z" fill="#111111"/>
<mask id="mask12" mask-type="alpha" maskUnits="userSpaceOnUse" x="1309" y="145" width="240" height="240">
<path d="M1429 385C1495.27 385 1549 331.274 1549 265C1549 198.726 1495.27 145 1429 145C1362.73 145 1309 198.726 1309 265C1309 331.274 1362.73 385 1429 385Z" fill="white"/>
</mask>
<g mask="url(#mask12)">
<path d="M1429 385C1495.27 385 1549 331.274 1549 265C1549 198.726 1495.27 145 1429 145C1362.73 145 1309 198.726 1309 265C1309 331.274 1362.73 385 1429 385Z" fill="#E6E6E6"/>
<path d="M1549 145H1309V385H1549V145Z" fill="#D6E8FA"/>
</g>
<mask id="mask13" mask-type="alpha" maskUnits="userSpaceOnUse" x="1297" y="105" width="264" height="280">
<path d="M1309 265C1309 331.274 1362.73 385 1429 385C1495.27 385 1549 331.274 1549 265H1561V105H1297V265H1309Z" fill="white"/>
</mask>
<g mask="url(#mask13)">
<mask id="mask14" mask-type="alpha" maskUnits="userSpaceOnUse" x="1329" y="141" width="200" height="244">
<path d="M1453 285.611V304H1457C1496.76 304 1529 336.235 1529 376V385H1329V376C1329 336.235 1361.24 304 1401 304H1405V285.611C1387.76 277.422 1375.37 260.687 1373.31 240.881C1367.48 240.058 1363 235.052 1363 229V215C1363 209.054 1367.32 204.118 1373 203.166V197C1373 166.072 1398.07 141 1429 141C1459.93 141 1485 166.072 1485 197V203.166C1490.68 204.118 1495 209.054 1495 215V229C1495 235.052 1490.52 240.058 1484.69 240.881C1482.63 260.687 1470.24 277.422 1453 285.611Z" fill="white"/>
</mask>
<g mask="url(#mask14)">
<path d="M1453 285.611V304H1457C1496.76 304 1529 336.235 1529 376V385H1329V376C1329 336.235 1361.24 304 1401 304H1405V285.611C1387.76 277.422 1375.37 260.687 1373.31 240.881C1367.48 240.058 1363 235.052 1363 229V215C1363 209.054 1367.32 204.118 1373 203.166V197C1373 166.072 1398.07 141 1429 141C1459.93 141 1485 166.072 1485 197V203.166C1490.68 204.118 1495 209.054 1495 215V229C1495 235.052 1490.52 240.058 1484.69 240.881C1482.63 260.687 1470.24 277.422 1453 285.611Z" fill="#D0C6AC"/>
<path d="M1593 141H1329V421H1593V141Z" fill="#D08B5B"/>
<path fill-rule="evenodd" clip-rule="evenodd" d="M1485 220V243C1485 273.928 1459.93 299 1429 299C1398.07 299 1373 273.928 1373 243V220V235C1373 265.928 1398.07 291 1429 291C1459.93 291 1485 265.928 1485 235V220Z" fill="black" fill-opacity="0.1"/>
</g>
<mask id="mask15" mask-type="alpha" maskUnits="userSpaceOnUse" x="1329" y="288" width="200" height="98">
<path fill-rule="evenodd" clip-rule="evenodd" d="M1405 288.071C1387.08 290.076 1373.28 295.552 1373 309.645C1347.15 320.568 1329 346.165 1329 376V385H1529V376C1529 346.165 1510.85 320.568 1485 309.645C1484.72 295.552 1470.92 290.076 1453 288.071V307C1453 320.255 1442.25 331 1429 331C1415.75 331 1405 320.255 1405 307V288.071Z" fill="white"/>
</mask>
<g mask="url(#mask15)">
<path fill-rule="evenodd" clip-rule="evenodd" d="M1405 288.071C1387.08 290.076 1373.28 295.552 1373 309.645C1347.15 320.568 1329 346.165 1329 376V385H1529V376C1529 346.165 1510.85 320.568 1485 309.645C1484.72 295.552 1470.92 290.076 1453 288.071V307C1453 320.255 1442.25 331 1429 331C1415.75 331 1405 320.255 1405 307V288.071Z" fill="#B7C1DB"/>
<path d="M1561 275H1297V385H1561V275Z" fill="#FFAFB9"/>
<path fill-rule="evenodd" clip-rule="evenodd" d="M1399 336.739V385H1392V333.15C1394.2 334.46 1396.55 335.661 1399 336.739ZM1466 333.15V373.5C1466 375.433 1464.43 377 1462.5 377C1460.57 377 1459 375.433 1459 373.5V336.739C1461.45 335.661 1463.8 334.46 1466 333.15Z" fill="#F4F4F4"/>
<path fill-rule="evenodd" clip-rule="evenodd" d="M1387.96 287.725C1372.91 290.571 1362.5 296.243 1362.5 307.308C1362.5 327.02 1395.54 343 1429 343C1462.46 343 1495.5 327.02 1495.5 307.308C1495.5 296.243 1485.09 290.571 1470.04 287.725C1479.12 291.075 1485 296.706 1485 306.077C1485 326.469 1457.18 343 1429 343C1400.82 343 1373 326.469 1373 306.077C1373 296.706 1378.88 291.075 1387.96 287.725Z" fill="black" fill-opacity="0.16"/>
</g>
<path fill-rule="evenodd" clip-rule="evenodd" d="M1415 254C1415 261.732 1421.27 268 1429 268C1436.73 268 1443 261.732 1443 254" fill="black" fill-opacity="0.7"/>
<path fill-rule="evenodd" clip-rule="evenodd" d="M1417 235C1417 239.418 1422.37 243 1429 243C1435.63 243 1441 239.418 1441 235" fill="black" fill-opacity="0.16"/>
<path fill-rule="evenodd" clip-rule="evenodd" d="M1389.16 217.447C1391.01 213.649 1395.16 211 1400 211C1404.81 211 1408.96 213.63 1410.82 217.407C1411.37 218.529 1410.58 219.447 1409.79 218.767C1407.34 216.66 1403.86 215.344 1400 215.344C1396.26 215.344 1392.87 216.579 1390.44 218.572C1389.55 219.3 1388.62 218.558 1389.16 217.447Z" fill="black" fill-opacity="0.6"/>
<path fill-rule="evenodd" clip-rule="evenodd" d="M1447.16 217.447C1449.01 213.649 1453.16 211 1458 211C1462.81 211 1466.96 213.63 1468.82 217.407C1469.37 218.529 1468.58 219.447 1467.79 218.767C1465.34 216.66 1461.86 215.344 1458 215.344C1454.26 215.344 1450.87 216.579 1448.44 218.572C1447.55 219.3 1446.62 218.558 1447.16 217.447Z" fill="black" fill-opacity="0.6"/>
<path d="M1388.63 204.158C1392.55 198.65 1403.28 195.561 1412.52 197.831C1413.6 198.094 1414.68 197.438 1414.94 196.366C1415.21 195.293 1414.55 194.21 1413.48 193.946C1402.74 191.31 1390.31 194.887 1385.37 201.841C1384.73 202.742 1384.94 203.99 1385.84 204.63C1386.74 205.27 1387.99 205.059 1388.63 204.158Z" fill="black" fill-opacity="0.6"/>
<path d="M1469.37 204.158C1465.46 198.65 1454.72 195.561 1445.48 197.831C1444.4 198.094 1443.32 197.438 1443.06 196.366C1442.79 195.293 1443.45 194.21 1444.52 193.946C1455.26 191.31 1467.69 194.887 1472.63 201.841C1473.27 202.742 1473.06 203.99 1472.16 204.63C1471.26 205.27 1470.01 205.059 1469.37 204.158Z" fill="black" fill-opacity="0.6"/>
<mask id="mask16" mask-type="alpha" maskUnits="userSpaceOnUse" x="1297" y="105" width="264" height="280">
<path d="M1561 105H1297V385H1561V105Z" fill="white"/>
</mask>
<g mask="url(#mask16)">
<mask id="mask17" mask-type="alpha" maskUnits="userSpaceOnUse" x="1361" y="109" width="136" height="69">
<path fill-rule="evenodd" clip-rule="evenodd" d="M1490.66 147.357C1493.46 154.358 1495 161.999 1495 170V178H1363V170C1363 161.975 1364.55 154.312 1367.37 147.293C1360.96 133.83 1359.72 122.773 1363.64 114.12C1371.14 111.844 1379.83 113.65 1389.72 119.539C1399.49 112.888 1411.29 109 1424 109H1434C1446.72 109 1458.53 112.895 1468.31 119.557C1478.2 113.653 1486.91 111.841 1494.42 114.12C1498.34 122.786 1497.09 133.865 1490.66 147.357Z" fill="white"/>
</mask>
<g mask="url(#mask17)">
<path fill-rule="evenodd" clip-rule="evenodd" d="M1490.66 147.357C1493.46 154.358 1495 161.999 1495 170V178H1363V170C1363 161.975 1364.55 154.312 1367.37 147.293C1360.96 133.83 1359.72 122.773 1363.64 114.12C1371.14 111.844 1379.83 113.65 1389.72 119.539C1399.49 112.888 1411.29 109 1424 109H1434C1446.72 109 1458.53 112.895 1468.31 119.557C1478.2 113.653 1486.91 111.841 1494.42 114.12C1498.34 122.786 1497.09 133.865 1490.66 147.357Z" fill="#D8D8D8"/>
<path d="M1625 109H1361V389H1625V109Z" fill="#FFAFB9"/>
</g>
<mask id="mask18" mask-type="alpha" maskUnits="userSpaceOnUse" x="1361" y="113" width="136" height="35">
<path fill-rule="evenodd" clip-rule="evenodd" d="M1389.72 119.539C1379.76 126.317 1371.91 135.965 1367.37 147.293C1360.96 133.83 1359.72 122.773 1363.64 114.12C1371.14 111.843 1379.83 113.65 1389.72 119.539L1389.72 119.539ZM1490.66 147.356C1486.12 136.011 1478.27 126.346 1468.31 119.556C1478.2 113.653 1486.91 111.841 1494.42 114.12C1498.34 122.786 1497.09 133.865 1490.66 147.356Z" fill="white"/>
</mask>
<g mask="url(#mask18)">
<path fill-rule="evenodd" clip-rule="evenodd" d="M1389.72 119.539C1379.76 126.317 1371.91 135.965 1367.37 147.293C1360.96 133.83 1359.72 122.773 1363.64 114.12C1371.14 111.843 1379.83 113.65 1389.72 119.539L1389.72 119.539ZM1490.66 147.356C1486.12 136.011 1478.27 126.346 1468.31 119.556C1478.2 113.653 1486.91 111.841 1494.42 114.12C1498.34 122.786 1497.09 133.865 1490.66 147.356Z" fill="black" fill-opacity="0.24"/>
</g>
<mask id="mask19" mask-type="alpha" maskUnits="userSpaceOnUse" x="1368" y="121" width="121" height="19">
<path fill-rule="evenodd" clip-rule="evenodd" d="M1382.86 124.959C1378.39 129.047 1374.53 133.791 1371.43 139.041C1368.5 130.932 1368 125.322 1369.93 122.208C1372.58 121.062 1376.89 121.979 1382.86 124.959ZM1486.35 138.674C1483.28 133.547 1479.47 128.909 1475.08 124.904C1480.88 122.052 1485.08 121.189 1487.69 122.315C1489.57 125.367 1489.13 130.82 1486.35 138.674Z" fill="white"/>
</mask>
<g mask="url(#mask19)">
<path fill-rule="evenodd" clip-rule="evenodd" d="M1382.86 124.959C1378.39 129.047 1374.53 133.791 1371.43 139.041C1368.5 130.932 1368 125.322 1369.93 122.208C1372.58 121.062 1376.89 121.979 1382.86 124.959ZM1486.35 138.674C1483.28 133.547 1479.47 128.909 1475.08 124.904C1480.88 122.052 1485.08 121.189 1487.69 122.315C1489.57 125.367 1489.13 130.82 1486.35 138.674Z" fill="white" fill-opacity="0.3"/>
</g>
<path fill-rule="evenodd" clip-rule="evenodd" d="M1363.28 166.451C1379.23 154.817 1401.16 149 1429.07 149C1456.99 149 1478.87 154.817 1494.73 166.45V166.45C1496.79 167.957 1498 170.352 1498 172.9V203.37C1498 205.579 1496.21 207.37 1494 207.37C1493.24 207.37 1492.5 207.156 1491.87 206.753C1475.22 196.251 1454.54 191 1429.8 191C1404.88 191 1383.64 196.331 1366.08 206.994V206.994C1364.19 208.141 1361.73 207.539 1360.58 205.651C1360.2 205.025 1360 204.307 1360 203.575L1360 172.914C1360 170.359 1361.22 167.957 1363.28 166.451Z" fill="black"/>
<path fill-rule="evenodd" clip-rule="evenodd" d="M1363.28 166.451C1379.23 154.817 1401.16 149 1429.07 149C1456.99 149 1478.87 154.817 1494.73 166.45V166.45C1496.79 167.957 1498 170.352 1498 172.9V203.37C1498 205.579 1496.21 207.37 1494 207.37C1493.24 207.37 1492.5 207.156 1491.87 206.753C1475.22 196.251 1454.54 191 1429.8 191C1404.88 191 1383.64 196.331 1366.08 206.994V206.994C1364.19 208.141 1361.73 207.539 1360.58 205.651C1360.2 205.025 1360 204.307 1360 203.575L1360 172.914C1360 170.359 1361.22 167.957 1363.28 166.451Z" fill="#F4F4F4"/>
</g>
</g>
<defs>
<filter id="filter0_d" x="282" y="191" width="134" height="56" filterUnits="userSpaceOnUse" color-interpolation-filters="sRGB">
<feFlood flood-opacity="0" result="BackgroundImageFix"/>
<feColorMatrix in="SourceAlpha" type="matrix" values="0 0 0 0 0 0 0 0 0 0 0 0 0 0 0 0 0 0 127 0"/>
<feOffset dy="2"/>
<feGaussianBlur stdDeviation="2"/>
<feColorMatrix type="matrix" values="0 0 0 0 0 0 0 0 0 0 0 0 0 0 0 0 0 0 0.1 0"/>
<feBlend mode="normal" in2="BackgroundImageFix" result="effect1_dropShadow"/>
<feBlend mode="normal" in="SourceGraphic" in2="effect1_dropShadow" result="shape"/>
</filter>
</defs>
</svg>
